<svg width="320" height="360" viewBox="0 0 320 360" fill="none" xmlns="http://www.w3.org/2000/svg">
<path opacity="0.51" d="M215.299 210.1C219.772 210.1 223.399 206.474 223.399 202C223.399 197.527 219.772 193.9 215.299 193.9C210.825 193.9 207.199 197.527 207.199 202C207.199 206.474 210.825 210.1 215.299 210.1Z" fill="#F76706"/>
<path d="M296.4 124.5C305.7 157 305.8 187.4 294.9 211.2C284.4 234.8 263 251.9 237.6 251.7C212.1 251.9 190.7 234.8 180.3 211.2C169.5 187.3 169.5 156.9 178.8 124.5C200.3 59.6001 216 5.00014 237.6 5.00014C259.2 4.90014 274.9 59.6001 296.4 124.5Z" stroke="#D2F9D9" stroke-width="10" stroke-miterlimit="10" stroke-linecap="round" stroke-linejoin="round"/>
<path d="M290.699 134.8C303.291 134.8 313.499 124.592 313.499 112C313.499 99.4082 303.291 89.2002 290.699 89.2002C278.107 89.2002 267.899 99.4082 267.899 112C267.899 124.592 278.107 134.8 290.699 134.8Z" stroke="#A4D8FF" stroke-width="10" stroke-miterlimit="10" stroke-linecap="round" stroke-linejoin="round"/>
<path d="M237.6 133V217V358.8" stroke="#464950" stroke-width="10" stroke-miterlimit="10" stroke-linecap="round" stroke-linejoin="round"/>
<path d="M175.8 359.7C175.8 330.5 199.5 306.8 228.7 306.8C257.9 306.8 281.6 330.5 281.6 359.7H175.8Z" fill="#72B579"/>
<path opacity="0.38" d="M238 307.6C235 307.1 231.9 306.8 228.7 306.8C199.5 306.8 175.8 330.5 175.8 359.7H194.5C194.5 333.7 213.2 312 238 307.6Z" fill="#464950"/>
<path d="M175.8 359.7C175.8 330.5 199.5 306.8 228.7 306.8C257.9 306.8 281.6 330.5 281.6 359.7H175.8Z" stroke="#464950" stroke-width="10" stroke-miterlimit="10" stroke-linecap="round" stroke-linejoin="round"/>
<path opacity="0.43" d="M240.799 80.0002C243.781 80.0002 246.199 77.5832 246.199 74.6002C246.199 71.6182 243.781 69.2002 240.799 69.2002C237.817 69.2002 235.399 71.6182 235.399 74.6002C235.399 77.5832 237.817 80.0002 240.799 80.0002Z" fill="#69DB7C"/>
<path opacity="0.51" d="M255.199 144C258.237 144 260.699 141.538 260.699 138.5C260.699 135.462 258.237 133 255.199 133C252.161 133 249.699 135.462 249.699 138.5C249.699 141.538 252.161 144 255.199 144Z" fill="#F76706"/>
<path opacity="0.43" d="M223.4 111.7C227.874 111.7 231.5 108.074 231.5 103.6C231.5 99.1263 227.874 95.5002 223.4 95.5002C218.927 95.5002 215.3 99.1263 215.3 103.6C215.3 108.074 218.927 111.7 223.4 111.7Z" fill="#69DB7C"/>
<path opacity="0.43" d="M266.5 171.6C270.753 171.6 274.2 168.153 274.2 163.9C274.2 159.648 270.753 156.2 266.5 156.2C262.248 156.2 258.8 159.648 258.8 163.9C258.8 168.153 262.248 171.6 266.5 171.6Z" fill="#69DB7C"/>
<path opacity="0.51" d="M291 329C288.3 328.2 285.4 327.8 282.4 327.8C264.8 327.8 250.6 342.1 250.6 359.6H267.9C267.8 345.1 277.6 332.8 291 329Z" fill="#464950"/>
<path d="M250.6 359.7C250.6 342.1 264.9 327.9 282.4 327.9C299.9 327.9 314.2 342.2 314.2 359.7H250.6Z" stroke="#464950" stroke-width="10" stroke-miterlimit="10" stroke-linecap="round" stroke-linejoin="round"/>
<path d="M170 57.8H234.4" stroke="#A4D8FF" stroke-width="10" stroke-miterlimit="10" stroke-linecap="round" stroke-linejoin="round"/>
<path opacity="0.51" d="M104.186 263.617C106.969 263.617 109.226 261.36 109.226 258.577C109.226 255.794 106.969 253.537 104.186 253.537C101.402 253.537 99.146 255.794 99.146 258.577C99.146 261.36 101.402 263.617 104.186 263.617Z" fill="#F76706"/>
<path d="M154.648 210.355C160.435 230.577 160.497 249.492 153.715 264.301C147.181 278.985 133.866 289.625 118.062 289.501C102.195 289.625 88.8798 278.985 82.4088 264.301C75.6888 249.43 75.6888 230.515 81.4754 210.355C94.8531 169.973 104.622 136 118.062 136C131.502 135.938 141.27 169.973 154.648 210.355Z" stroke="#D2F9D9" stroke-width="10" stroke-miterlimit="10" stroke-linecap="round" stroke-linejoin="round"/>
<path d="M151.101 216.764C158.936 216.764 165.288 210.412 165.288 202.577C165.288 194.742 158.936 188.391 151.101 188.391C143.266 188.391 136.915 194.742 136.915 202.577C136.915 210.412 143.266 216.764 151.101 216.764Z" stroke="#A4D8FF" stroke-width="10" stroke-miterlimit="10" stroke-linecap="round" stroke-linejoin="round"/>
<path d="M118.062 215.644V267.91V356.14" stroke="#464950" stroke-width="10" stroke-miterlimit="10" stroke-linecap="round" stroke-linejoin="round"/>
<path d="M79.6089 356.7C79.6089 338.531 94.3554 323.785 112.524 323.785C130.693 323.785 145.439 338.531 145.439 356.7H79.6089Z" fill="#72B579"/>
<path opacity="0.38" d="M118.311 324.283C116.444 323.972 114.515 323.785 112.524 323.785C94.3554 323.785 79.6089 338.531 79.6089 356.7H91.2443C91.2443 340.523 102.88 327.02 118.311 324.283Z" fill="#464950"/>
<path d="M79.6089 356.7C79.6089 338.531 94.3554 323.785 112.524 323.785C130.693 323.785 145.439 338.531 145.439 356.7H79.6089Z" stroke="#464950" stroke-width="10" stroke-miterlimit="10" stroke-linecap="round" stroke-linejoin="round"/>
<path opacity="0.43" d="M120.052 182.666C121.908 182.666 123.412 181.162 123.412 179.306C123.412 177.451 121.908 175.946 120.052 175.946C118.197 175.946 116.692 177.451 116.692 179.306C116.692 181.162 118.197 182.666 120.052 182.666Z" fill="#69DB7C"/>
<path opacity="0.51" d="M129.013 222.488C130.903 222.488 132.435 220.956 132.435 219.066C132.435 217.176 130.903 215.644 129.013 215.644C127.122 215.644 125.59 217.176 125.59 219.066C125.59 220.956 127.122 222.488 129.013 222.488Z" fill="#F76706"/>
<path opacity="0.43" d="M109.226 202.391C112.01 202.391 114.266 200.134 114.266 197.351C114.266 194.567 112.01 192.311 109.226 192.311C106.443 192.311 104.186 194.567 104.186 197.351C104.186 200.134 106.443 202.391 109.226 202.391Z" fill="#69DB7C"/>
<path opacity="0.43" d="M136.044 239.661C138.69 239.661 140.835 237.517 140.835 234.87C140.835 232.225 138.69 230.079 136.044 230.079C133.398 230.079 131.252 232.225 131.252 234.87C131.252 237.517 133.398 239.661 136.044 239.661Z" fill="#69DB7C"/>
<path opacity="0.51" d="M151.288 337.598C149.608 337.1 147.804 336.851 145.937 336.851C134.986 336.851 126.15 345.749 126.15 356.638H136.915C136.852 347.616 142.95 339.963 151.288 337.598Z" fill="#464950"/>
<path d="M126.15 356.7C126.15 345.749 135.048 336.914 145.937 336.914C156.826 336.914 165.723 345.811 165.723 356.7H126.15Z" stroke="#464950" stroke-width="10" stroke-miterlimit="10" stroke-linecap="round" stroke-linejoin="round"/>
<path d="M76 168.853H116.071" stroke="#A4D8FF" stroke-width="10" stroke-miterlimit="10" stroke-linecap="round" stroke-linejoin="round"/>
<path opacity="0.51" d="M23.607 294.249C25.4444 294.249 26.9343 292.759 26.9343 290.922C26.9343 289.084 25.4444 287.594 23.607 287.594C21.7692 287.594 20.2798 289.084 20.2798 290.922C20.2798 292.759 21.7692 294.249 23.607 294.249Z" fill="#F76706"/>
<path d="M56.9217 259.087C60.7419 272.437 60.783 284.924 56.3056 294.701C51.9925 304.395 43.202 311.419 32.7685 311.337C22.2938 311.419 13.5033 304.395 9.23132 294.701C4.79501 284.883 4.79501 272.396 8.61517 259.087C17.4467 232.428 23.8958 210 32.7685 210C41.6411 209.959 48.0902 232.428 56.9217 259.087Z" stroke="#D2F9D9" stroke-width="10" stroke-miterlimit="10" stroke-linecap="round" stroke-linejoin="round"/>
<path d="M54.5799 263.318C59.7523 263.318 63.9455 259.125 63.9455 253.952C63.9455 248.78 59.7523 244.587 54.5799 244.587C49.4075 244.587 45.2144 248.78 45.2144 253.952C45.2144 259.125 49.4075 263.318 54.5799 263.318Z" stroke="#A4D8FF" stroke-width="10" stroke-miterlimit="10" stroke-linecap="round" stroke-linejoin="round"/>
<path d="M32.7681 262.579V297.083V355.33" stroke="#464950" stroke-width="10" stroke-miterlimit="10" stroke-linecap="round" stroke-linejoin="round"/>
<path d="M7.38232 355.7C7.38232 343.706 17.1176 333.97 29.1121 333.97C41.1065 333.97 50.8418 343.706 50.8418 355.7H7.38232Z" fill="#72B579"/>
<path opacity="0.38" d="M32.9322 334.299C31.6999 334.094 30.4265 333.97 29.1121 333.97C17.1176 333.97 7.38232 343.706 7.38232 355.7H15.0637C15.0637 345.02 22.7451 336.106 32.9322 334.299Z" fill="#464950"/>
<path d="M7.38232 355.7C7.38232 343.706 17.1176 333.97 29.1121 333.97C41.1065 333.97 50.8418 343.706 50.8418 355.7H7.38232Z" stroke="#464950" stroke-width="10" stroke-miterlimit="10" stroke-linecap="round" stroke-linejoin="round"/>
<path opacity="0.43" d="M34.0819 240.808C35.3068 240.808 36.3001 239.815 36.3001 238.59C36.3001 237.365 35.3068 236.371 34.0819 236.371C32.857 236.371 31.8638 237.365 31.8638 238.59C31.8638 239.815 32.857 240.808 34.0819 240.808Z" fill="#69DB7C"/>
<path opacity="0.51" d="M39.997 267.097C41.2449 267.097 42.2563 266.086 42.2563 264.838C42.2563 263.59 41.2449 262.579 39.997 262.579C38.7491 262.579 37.7378 263.59 37.7378 264.838C37.7378 266.086 38.7491 267.097 39.997 267.097Z" fill="#F76706"/>
<path opacity="0.43" d="M26.9352 253.829C28.7729 253.829 30.2624 252.34 30.2624 250.502C30.2624 248.664 28.7729 247.175 26.9352 247.175C25.0978 247.175 23.6079 248.664 23.6079 250.502C23.6079 252.34 25.0978 253.829 26.9352 253.829Z" fill="#69DB7C"/>
<path opacity="0.43" d="M44.6395 278.434C46.3865 278.434 47.8024 277.018 47.8024 275.271C47.8024 273.525 46.3865 272.109 44.6395 272.109C42.8929 272.109 41.4766 273.525 41.4766 275.271C41.4766 277.018 42.8929 278.434 44.6395 278.434Z" fill="#69DB7C"/>
<path opacity="0.51" d="M54.703 343.089C53.5939 342.761 52.4027 342.597 51.1704 342.597C43.9408 342.597 38.1079 348.471 38.1079 355.659H45.2142C45.1731 349.703 49.1987 344.65 54.703 343.089Z" fill="#464950"/>
<path d="M38.1079 355.7C38.1079 348.471 43.9819 342.638 51.1704 342.638C58.3589 342.638 64.2329 348.512 64.2329 355.7H38.1079Z" stroke="#464950" stroke-width="10" stroke-miterlimit="10" stroke-linecap="round" stroke-linejoin="round"/>
<path d="M5 231.689H31.4536" stroke="#A4D8FF" stroke-width="10" stroke-miterlimit="10" stroke-linecap="round" stroke-linejoin="round"/>
</svg>
