<svg width="218" height="280" viewBox="0 0 218 280" fill="none" xmlns="http://www.w3.org/2000/svg">
<path opacity="0.51" d="M34.5559 161.457C37.968 161.457 40.7348 158.691 40.7348 155.278C40.7348 151.866 37.968 149.099 34.5559 149.099C31.143 149.099 28.377 151.866 28.377 155.278C28.377 158.691 31.143 161.457 34.5559 161.457Z" fill="#F76706"/>
<path d="M96.4221 96.1585C103.516 120.95 103.593 144.141 95.2778 162.296C87.2681 180.299 70.9435 193.343 51.5676 193.191C32.1154 193.343 15.7908 180.299 7.85732 162.296C-0.381258 144.064 -0.381258 120.874 6.71308 96.1585C23.114 46.6507 35.0904 5.0001 51.5676 5.0001C68.0448 4.92382 80.0212 46.6507 96.4221 96.1585Z" stroke="#D2F9D9" stroke-width="10" stroke-miterlimit="10" stroke-linecap="round" stroke-linejoin="round"/>
<path d="M92.0742 104.016C101.68 104.016 109.467 96.2287 109.467 86.6231C109.467 77.0176 101.68 69.2306 92.0742 69.2306C82.4686 69.2306 74.6816 77.0176 74.6816 86.6231C74.6816 96.2287 82.4686 104.016 92.0742 104.016Z" stroke="#A4D8FF" stroke-width="10" stroke-miterlimit="10" stroke-linecap="round" stroke-linejoin="round"/>
<path d="M51.5664 102.643V166.72V274.89" stroke="#464950" stroke-width="10" stroke-miterlimit="10" stroke-linecap="round" stroke-linejoin="round"/>
<path d="M4.42285 275.577C4.42285 253.302 22.502 235.223 44.7767 235.223C67.0513 235.223 85.1305 253.302 85.1305 275.577H4.42285Z" fill="#72B579"/>
<path opacity="0.38" d="M51.871 235.833C49.5825 235.452 47.2177 235.223 44.7767 235.223C22.502 235.223 4.42285 253.302 4.42285 275.577H18.6878C18.6878 255.743 32.9528 239.189 51.871 235.833Z" fill="#464950"/>
<path d="M4.42285 275.577C4.42285 253.302 22.502 235.223 44.7767 235.223C67.0513 235.223 85.1305 253.302 85.1305 275.577H4.42285Z" stroke="#464950" stroke-width="10" stroke-miterlimit="10" stroke-linecap="round" stroke-linejoin="round"/>
<path opacity="0.43" d="M54.0079 62.2124C56.2827 62.2124 58.1272 60.3687 58.1272 58.0932C58.1272 55.8184 56.2827 53.9739 54.0079 53.9739C51.7332 53.9739 49.8887 55.8184 49.8887 58.0932C49.8887 60.3687 51.7332 62.2124 54.0079 62.2124Z" fill="#69DB7C"/>
<path opacity="0.51" d="M64.9934 111.034C67.3109 111.034 69.189 109.156 69.189 106.838C69.189 104.521 67.3109 102.643 64.9934 102.643C62.6759 102.643 60.7979 104.521 60.7979 106.838C60.7979 109.156 62.6759 111.034 64.9934 111.034Z" fill="#F76706"/>
<path opacity="0.43" d="M40.7366 86.3944C44.1495 86.3944 46.9155 83.6283 46.9155 80.2154C46.9155 76.8025 44.1495 74.0365 40.7366 74.0365C37.3244 74.0365 34.5576 76.8025 34.5576 80.2154C34.5576 83.6283 37.3244 86.3944 40.7366 86.3944Z" fill="#69DB7C"/>
<path opacity="0.43" d="M73.614 132.088C76.8584 132.088 79.4879 129.458 79.4879 126.214C79.4879 122.971 76.8584 120.34 73.614 120.34C70.3705 120.34 67.7402 122.971 67.7402 126.214C67.7402 129.458 70.3705 132.088 73.614 132.088Z" fill="#69DB7C"/>
<path opacity="0.51" d="M92.3018 252.157C90.2421 251.547 88.0299 251.242 85.7414 251.242C72.3156 251.242 61.4834 262.151 61.4834 275.5H74.6804C74.6041 264.439 82.0798 255.056 92.3018 252.157Z" fill="#464950"/>
<path d="M61.4834 275.577C61.4834 262.151 72.3919 251.318 85.7414 251.318C99.091 251.318 109.999 262.227 109.999 275.577H61.4834Z" stroke="#464950" stroke-width="10" stroke-miterlimit="10" stroke-linecap="round" stroke-linejoin="round"/>
<path d="M0 45.2776H49.1264" stroke="#A4D8FF" stroke-width="10" stroke-miterlimit="10" stroke-linecap="round" stroke-linejoin="round"/>
<path opacity="0.51" d="M151.787 187.81C154.531 187.81 156.756 185.586 156.756 182.842C156.756 180.098 154.531 177.873 151.787 177.873C149.043 177.873 146.818 180.098 146.818 182.842C146.818 185.586 149.043 187.81 151.787 187.81Z" fill="#F76706"/>
<path d="M201.535 135.303C207.24 155.238 207.302 173.886 200.615 188.485C194.175 202.962 181.048 213.451 165.467 213.328C149.825 213.451 136.698 202.962 130.319 188.485C123.694 173.825 123.694 155.177 129.398 135.303C142.587 95.4922 152.217 62.0001 165.467 62.0001C178.717 61.9387 188.347 95.4922 201.535 135.303Z" stroke="#D2F9D9" stroke-width="10" stroke-miterlimit="10" stroke-linecap="round" stroke-linejoin="round"/>
<path d="M198.038 141.621C205.763 141.621 212.024 135.359 212.024 127.635C212.024 119.911 205.763 113.649 198.038 113.649C190.314 113.649 184.053 119.911 184.053 127.635C184.053 135.359 190.314 141.621 198.038 141.621Z" stroke="#A4D8FF" stroke-width="10" stroke-miterlimit="10" stroke-linecap="round" stroke-linejoin="round"/>
<path d="M165.466 140.517V192.043V279.024" stroke="#464950" stroke-width="10" stroke-miterlimit="10" stroke-linecap="round" stroke-linejoin="round"/>
<path d="M127.557 279.577C127.557 261.665 142.094 247.127 160.006 247.127C177.918 247.127 192.455 261.665 192.455 279.577H127.557Z" fill="#72B579"/>
<path opacity="0.38" d="M165.711 247.618C163.87 247.311 161.969 247.127 160.006 247.127C142.094 247.127 127.557 261.665 127.557 279.577H139.027C139.027 263.628 150.498 250.317 165.711 247.618Z" fill="#464950"/>
<path d="M127.557 279.577C127.557 261.665 142.094 247.127 160.006 247.127C177.918 247.127 192.455 261.665 192.455 279.577H127.557Z" stroke="#464950" stroke-width="10" stroke-miterlimit="10" stroke-linecap="round" stroke-linejoin="round"/>
<path opacity="0.43" d="M167.429 108.006C169.258 108.006 170.741 106.523 170.741 104.693C170.741 102.864 169.258 101.381 167.429 101.381C165.599 101.381 164.116 102.864 164.116 104.693C164.116 106.523 165.599 108.006 167.429 108.006Z" fill="#69DB7C"/>
<path opacity="0.51" d="M176.262 147.264C178.126 147.264 179.636 145.754 179.636 143.89C179.636 142.027 178.126 140.517 176.262 140.517C174.399 140.517 172.889 142.027 172.889 143.89C172.889 145.754 174.399 147.264 176.262 147.264Z" fill="#F76706"/>
<path opacity="0.43" d="M156.757 127.451C159.501 127.451 161.725 125.227 161.725 122.482C161.725 119.738 159.501 117.514 156.757 117.514C154.013 117.514 151.788 119.738 151.788 122.482C151.788 125.227 154.013 127.451 156.757 127.451Z" fill="#69DB7C"/>
<path opacity="0.43" d="M183.195 164.194C185.804 164.194 187.918 162.08 187.918 159.471C187.918 156.863 185.804 154.748 183.195 154.748C180.587 154.748 178.472 156.863 178.472 159.471C178.472 162.08 180.587 164.194 183.195 164.194Z" fill="#69DB7C"/>
<path opacity="0.51" d="M198.222 260.745C196.566 260.254 194.787 260.009 192.947 260.009C182.151 260.009 173.44 268.78 173.44 279.515H184.052C183.991 270.621 190.002 263.076 198.222 260.745Z" fill="#464950"/>
<path d="M173.44 279.576C173.44 268.78 182.212 260.07 192.947 260.07C203.682 260.07 212.453 268.842 212.453 279.576H173.44Z" stroke="#464950" stroke-width="10" stroke-miterlimit="10" stroke-linecap="round" stroke-linejoin="round"/>
<path d="M124 94.3881H163.504" stroke="#A4D8FF" stroke-width="10" stroke-miterlimit="10" stroke-linecap="round" stroke-linejoin="round"/>
</svg>
