<svg width="560" height="530" viewBox="0 0 560 530" fill="none" xmlns="http://www.w3.org/2000/svg">
<path fill-rule="evenodd" clip-rule="evenodd" d="M39.5128 253.681C39.5128 253.681 15.7062 233.142 49.1055 162.225C82.5048 91.3093 150.145 106.852 193.38 78.9583C257.263 37.7441 231.078 5.49003 310.734 0.291743C411.026 -6.25425 416.707 99.5275 466.884 99.5275C470.184 99.5275 548.32 67.8197 559.757 154.622C565.517 198.337 466.884 265 466.884 265C466.884 265 425.833 302.579 423.58 321.136C414.126 398.959 433.841 488.094 212.897 529.127C184.322 534.435 136.875 515.238 110.697 479.778C90.1901 451.996 7.92457 471.707 0.245707 380.373C-3.62478 334.338 39.5128 253.681 39.5128 253.681Z" fill="#339AF0"/>
<path d="M186.888 191.979C187.633 191.536 188.594 191.786 189.033 192.539L190.806 195.559C197.848 207.492 200.665 211.366 203.658 213.117C206.119 214.557 208.663 214.11 213.319 211.352L213.941 210.976C216.87 209.132 230.273 199.834 235.454 196.495C236.183 196.026 237.151 196.242 237.617 196.979C238.082 197.715 237.869 198.693 237.139 199.163L236.342 199.682C230.567 203.462 217.596 212.459 215.299 213.845C209.662 217.25 206.007 218.015 202.344 216.001L202.088 215.856C198.152 213.553 195.091 209.135 186.335 194.146C185.895 193.394 186.143 192.424 186.888 191.979Z" fill="white"/>
<path d="M212.257 210.268C213.114 210.152 213.903 210.76 214.017 211.625C214.551 215.65 215.828 219.685 217.858 223.737C218.248 224.516 217.938 225.468 217.167 225.862C216.395 226.257 215.452 225.945 215.061 225.165C212.879 220.806 211.493 216.431 210.911 212.046C210.797 211.179 211.399 210.383 212.257 210.268Z" fill="white"/>
<path fill-rule="evenodd" clip-rule="evenodd" d="M394.755 306.897C394.502 307.542 393.948 308.437 393.305 309.283L393.86 309.863L394.502 310.555L394.646 310.693C394.708 310.749 394.757 310.783 394.792 310.793C395 310.823 395.145 311.016 395.117 311.227C395.087 311.434 394.896 311.583 394.689 311.553C394.5 311.549 393.817 311.279 393.002 310.611C392.854 310.49 392.707 310.35 392.557 310.197C392.087 310.727 391.613 311.182 391.202 311.464C390.6 311.885 390.076 311.919 389.827 311.748C389.581 311.582 389.345 311.025 389.745 309.899C389.808 309.695 390.023 309.588 390.223 309.651C390.421 309.715 390.531 309.929 390.469 310.133C390.408 310.342 390.399 310.533 390.398 310.686L390.631 310.526C390.712 310.467 390.796 310.4 390.873 310.322C391.153 310.044 391.465 309.706 391.779 309.34C391.282 308.756 390.775 308.071 390.365 307.281C390.165 306.894 390.006 306.486 389.854 306.055C389.75 305.815 389.858 305.533 390.097 305.426C390.335 305.32 390.615 305.43 390.719 305.67C391.176 306.636 391.759 307.468 392.335 308.18L392.526 308.413C393.051 307.721 393.501 307.02 393.705 306.486C393.819 306.195 394.146 306.05 394.435 306.161C394.726 306.277 394.87 306.606 394.755 306.897Z" fill="white"/>
<path fill-rule="evenodd" clip-rule="evenodd" d="M161.667 107.308L160.712 107.133C155.381 106.132 151.292 104.903 143.656 102.228C142.78 101.922 142.316 100.956 142.619 100.071C142.923 99.1877 143.88 98.7194 144.755 99.0255L146.658 99.6874C153.358 101.996 157.117 103.055 162.25 103.969C179.524 107.045 192.458 98.0888 193.516 81.0067C193.574 80.0722 194.371 79.3616 195.296 79.42C196.221 79.4784 196.925 80.2831 196.866 81.2176C195.676 100.429 180.819 110.718 161.667 107.308Z" fill="#00160A"/>
<path fill-rule="evenodd" clip-rule="evenodd" d="M204.83 125.601L205.794 127.765L207.991 128.402C208.11 128.436 208.179 128.562 208.145 128.681C208.134 128.719 208.115 128.752 208.088 128.779L206.418 130.458L206.511 132.873C206.517 132.997 206.42 133.102 206.297 133.108C206.255 133.109 206.214 133.099 206.177 133.077L204.288 131.99C204.228 131.957 204.157 131.952 204.094 131.977L202.073 132.788C201.958 132.834 201.828 132.778 201.782 132.661C201.767 132.622 201.763 132.579 201.77 132.538L202.195 130.159L200.774 128.262C200.699 128.163 200.719 128.021 200.817 127.946C200.847 127.922 200.883 127.907 200.921 127.902L203.185 127.581L204.437 125.574C204.503 125.468 204.641 125.437 204.745 125.503C204.783 125.527 204.813 125.561 204.83 125.601Z" fill="#00160A"/>
<path d="M425.611 71.2344C426.475 71.1716 427.224 71.8282 427.285 72.7C427.348 73.5718 426.697 74.3278 425.834 74.3905C419.653 74.8362 414.798 77.2547 412.642 83.2393C412.511 83.5995 412.404 83.9478 412.318 84.2777L412.259 84.5048L412.354 84.3058C415.069 78.7062 420.306 74.8156 426.375 73.8281L426.772 73.7675C427.629 73.6464 428.421 74.25 428.541 75.1153C428.659 75.9806 428.062 76.781 427.205 76.901C421.566 77.696 416.744 81.4806 414.64 86.9082L414.503 87.2727C413.504 90.0471 411.104 91.3775 409.56 89.0033C408.617 87.555 408.679 84.9829 409.698 82.1577C412.281 74.9898 418.208 71.7676 425.611 71.2344Z" fill="white"/>
<path d="M418.476 59.4469C419.338 59.3842 420.087 60.0407 420.15 60.9125C420.211 61.7843 419.561 62.5403 418.698 62.6031C408.865 63.3115 400.242 69.7613 396.812 79.2806C395.795 82.1026 395.606 84.5146 395.97 85.7369L396.014 85.8731L396.084 85.7726C396.258 85.5043 396.455 85.1192 396.649 84.6206L396.732 84.4C400.355 74.3441 409.141 67.3027 419.446 65.8501C420.304 65.729 421.095 66.3325 421.214 67.1978C421.334 68.0631 420.736 68.8624 419.88 68.9836C410.864 70.2545 403.16 76.331 399.841 85.037L399.675 85.4816C398.332 89.211 395.425 90.8216 393.568 87.9661C392.295 86.0094 392.384 82.3168 393.868 78.1979C397.726 67.4953 407.42 60.243 418.476 59.4469Z" fill="white"/>
<path d="M408.86 43.733C409.723 43.6714 410.473 44.3268 410.534 45.1986C410.596 46.0704 409.946 46.8275 409.083 46.8892C395.059 47.8994 382.761 57.0987 377.867 70.6763C376.202 75.297 376.064 79.2135 376.973 80.8414L377.055 80.9798C377.19 81.1864 377.145 81.1918 377.18 81.1637L377.2 81.1496C377.662 80.8944 378.27 80.0248 378.826 78.5808L378.936 78.2844C383.933 64.4169 396.051 54.705 410.263 52.7019C411.121 52.5807 411.912 53.1842 412.031 54.0495C412.151 54.9148 411.554 55.7142 410.697 55.8353C397.792 57.6546 386.767 66.379 382.062 78.8717L381.88 79.3671C380.141 84.1912 376.654 86.124 374.437 82.7169C372.784 80.1762 372.904 75.1953 374.923 69.5947C380.243 54.8327 393.614 44.832 408.86 43.733Z" fill="white"/>
<path d="M391.694 28.9646C392.542 28.7959 393.366 29.3551 393.532 30.2128C393.698 31.0705 393.145 31.9012 392.296 32.0699C379.599 34.5804 369.389 44.3745 366.428 57.3291C365.425 61.714 365.728 65.2791 366.712 66.6387L366.842 66.8096L366.853 66.8333L366.871 66.8182C367.223 66.498 367.635 65.6782 367.954 64.4062L368.021 64.1271C371.067 50.8037 381.124 40.4904 393.971 37.027C394.807 36.801 395.666 37.3028 395.889 38.1476C396.112 38.9913 395.615 39.8587 394.779 40.0837C383.205 43.2042 374.112 52.4077 371.193 64.3337L371.073 64.8388C369.999 69.5385 366.916 71.7807 364.417 68.8062C362.589 66.6311 362.142 62.0147 363.375 56.6174C366.617 42.4362 377.795 31.713 391.694 28.9646Z" fill="white"/>
<path d="M218.046 224.082L218.95 223.75C227.497 220.652 234.708 219.286 236.539 221.168C238.146 222.818 239.578 225.808 240.935 230.193C241.193 231.027 240.733 231.914 239.908 232.175C239.082 232.435 238.203 231.97 237.944 231.136C236.771 227.345 235.573 224.792 234.441 223.531L234.394 223.482L234.354 223.484C234.139 223.439 233.818 223.418 233.408 223.425C232.506 223.443 231.271 223.604 229.798 223.898C226.767 224.505 222.935 225.633 219.13 227.051C212.767 229.421 207.467 232.206 204.54 234.722C203.465 235.645 201.501 233.072 203.391 231.599C206.789 228.947 211.942 226.355 218.046 224.082Z" fill="white"/>
<path d="M213.743 194.193C213.743 199.471 219.268 205.185 220.444 205.509C221.278 205.741 206.902 215.201 206.902 215.201C201.707 215.891 198.656 211.456 198.656 204.851C198.656 203.977 213.743 193.32 213.743 194.193Z" fill="white"/>
<path fill-rule="evenodd" clip-rule="evenodd" d="M196.792 196.968C198.612 196.61 199.848 195.079 199.553 193.548C199.259 192.016 197.544 191.063 195.724 191.421C193.905 191.778 192.668 193.31 192.962 194.841C193.258 196.373 194.971 197.325 196.792 196.968Z" fill="#FFB61D"/>
<path d="M382.218 20.1889C383.071 20.0397 383.882 20.6162 384.03 21.4761C384.179 22.337 383.608 23.1569 382.756 23.3062C378.702 24.0201 374.614 26.4981 370.4 30.4395C364.928 35.5577 361.312 42.6294 359.319 52.059C357.713 59.6552 359.196 69.1486 363.393 77.4934C368.168 86.9868 376.616 89.3339 386.466 91.151C396.578 93.0158 399.372 91.8638 408.927 88.4329L409.807 88.1106C411.112 87.6109 417.218 85.1989 418.686 84.75C421.775 83.8068 423.882 83.8858 425.41 85.5299C426.002 86.1669 425.971 87.1685 425.34 87.7666C424.748 88.3269 423.839 88.3345 423.241 87.8078L423.125 87.6953C422.674 87.2107 421.743 87.1544 419.867 87.6974L419.592 87.7785C418.18 88.2101 411.56 90.8341 410.702 91.151C400.382 94.9551 396.882 96.2888 385.902 94.2629C375.024 92.2565 365.793 89.2517 360.6 78.9265C356.086 69.9523 354.495 59.7245 356.255 51.3981C358.383 41.3347 362.322 33.6811 368.271 28.1172C372.929 23.7626 377.568 21.0077 382.218 20.1889Z" fill="white"/>
<path d="M455.91 146.074C446.98 145.613 439.948 152.579 439.874 161.93C439.812 169.808 444.206 176.296 450.242 177.553C452.682 178.06 457.369 177.449 460.844 175.48C466.122 172.622 470.156 166.745 470.666 161.737C471.495 153.579 464.956 146.541 455.91 146.074Z" fill="white"/>
<path d="M294.089 144.428C296.941 150.246 301.371 163.685 299.455 163.62C294.133 163.441 287.013 155.181 282.033 144.013L281.64 143.115C277.292 132.975 274.689 126.604 277.712 125.384C280.84 124.121 288.202 132.419 294.089 144.428Z" fill="white"/>
<path fill-rule="evenodd" clip-rule="evenodd" d="M277.713 125.258C280.841 123.996 288.311 131.913 294.198 143.923C297.05 149.741 298.986 155.323 299.491 159.325C299.491 159.325 289.858 138.825 283.981 131.316C281.725 128.433 277.713 125.258 277.713 125.258Z" fill="#E7EAEE"/>
<path d="M276.07 176.884C276.299 176.042 277.161 175.547 277.995 175.779C278.83 176.01 279.32 176.881 279.091 177.724C278.795 178.807 274.646 181.65 265.592 187.286L259.878 190.819C248.596 197.754 241.068 202.193 240.127 202.193C233.898 202.193 228.285 196.258 224.188 186.895C220.61 178.719 218.753 168.986 219.591 162.609C219.853 160.618 226.42 155.465 236.558 148.561L238.011 147.579C246.981 141.543 254.648 137.068 257.422 136.502C258.27 136.329 259.097 136.884 259.267 137.74C259.374 138.276 234.65 159.324 232.234 173.294C230.599 182.754 236.781 198.876 239.851 199.022L240.127 199.028C239.878 199.028 239.958 198.97 239.988 198.954L240.269 198.807C240.478 198.696 240.725 198.561 241.009 198.403L242.313 197.668C242.811 197.382 243.367 197.061 243.975 196.706L245.53 195.794C248.498 194.044 252.201 191.815 255.978 189.507L259.571 187.301C263.94 184.605 267.888 182.119 270.854 180.19L272.382 179.186C273.329 178.56 274.129 178.017 274.769 177.567L275 177.402C275.353 177.151 275.646 176.935 275.875 176.759C275.875 176.759 276.132 176.655 276.07 176.884Z" fill="white"/>
<path fill-rule="evenodd" clip-rule="evenodd" d="M279.177 145.312C275.391 136.823 273.719 129.044 274.986 124.334C272.696 125.069 269.832 126.39 266.99 128.037C263.212 130.225 260.214 132.673 260.143 133.204C259.413 138.756 262.217 149.558 266.874 159.188C271.856 169.488 277.783 176.104 282.372 176.104C282.811 176.104 284.069 175.843 285.328 175.398C287.121 174.765 288.8 173.844 290.175 172.638C290.86 172.038 291.568 171.359 292.308 170.602L293.199 169.672C293.724 169.111 294.267 168.506 295.113 167.549L296.292 166.219L296.342 166.163C290.44 163.985 284.266 156.306 279.648 146.349L279.177 145.312ZM257.039 132.786C257.525 129.083 271.256 121.077 277.522 120.559C277.784 120.393 278.065 120.249 278.364 120.128C283.79 117.939 292.059 127.32 298.692 140.519L299.146 141.435C302.14 147.542 304.183 153.435 304.74 157.841C305.405 163.109 303.895 166.6 299.935 166.78C299.829 167.194 299.56 167.541 299.205 167.751L299.144 167.782L298.99 167.938C298.834 168.099 298.651 168.299 298.369 168.616L296.422 170.81C295.717 171.596 295.215 172.129 294.537 172.824C293.745 173.635 292.98 174.368 292.231 175.026C289.198 177.687 284.715 179.268 282.372 179.268C281.13 179.268 279.874 178.977 278.614 178.42C277.27 179.836 273.132 182.593 265.593 187.286L259.879 190.818C248.597 197.754 241.069 202.192 240.128 202.192C237.996 202.192 235.934 201.497 233.982 200.205C233.963 200.217 233.945 200.23 233.926 200.242L233.129 200.76C230.353 202.577 225.915 205.599 221.799 208.403L221.798 208.404L221.541 208.578C222.075 212.42 223.286 216.273 225.181 220.138C231.909 218.037 237.238 217.327 238.776 218.908C240.383 220.558 241.815 223.548 243.172 227.933C243.43 228.767 242.969 229.653 242.143 229.914C241.318 230.175 240.44 229.711 240.181 228.877C239.008 225.085 237.81 222.532 236.677 221.271L236.631 221.221L236.59 221.223C236.376 221.179 236.054 221.157 235.645 221.165C234.742 221.182 233.508 221.343 232.035 221.639C229.003 222.244 225.172 223.374 221.367 224.791C212.668 228.031 205.955 232.047 204.575 235.09C204.171 235.98 204.224 237.283 204.706 239.279L204.796 239.639C204.868 239.921 204.944 240.202 205.043 240.556L205.608 242.579C205.632 242.667 205.655 242.757 205.684 242.871C205.902 243.717 205.4 244.581 204.562 244.801C203.725 245.02 202.87 244.512 202.652 243.666L202.374 242.643L201.91 240.992C201.858 240.796 201.81 240.616 201.763 240.433C201.029 237.574 200.911 235.571 201.727 233.772C203.11 230.722 207.436 227.562 213.462 224.688L212.151 221.27L211.827 220.406C211.332 219.057 210.753 217.23 210.4 215.895C205.693 218.458 202.415 218.886 199.131 217.08L198.875 216.935C198.225 216.555 197.6 216.117 196.969 215.584L178.609 226.846C178.779 227.218 178.952 227.592 179.126 227.969C179.95 229.753 178.497 231.016 176.268 232L176.028 232.103C174.112 232.904 172.384 233.088 171.356 231.948C167.086 227.214 162.566 215.894 164.997 213.305C165.464 212.807 166.697 212.067 169.028 210.832L169.214 210.735C169.261 210.701 169.311 210.671 169.362 210.642L186.525 201.251C186.564 201.229 186.604 201.21 186.645 201.193C185.584 199.422 184.422 197.451 183.138 195.252C182.942 194.933 182.871 194.561 182.92 194.202C182.951 193.974 183.031 193.752 183.161 193.553C183.231 193.444 183.317 193.342 183.416 193.251C186.943 189.872 191.752 186.349 197.783 182.554L198.514 182.097C201.124 180.471 206.418 177.422 210.916 174.831C214.404 172.822 217.414 171.088 218.32 170.509L218.539 170.362C218.867 170.12 219.257 170.026 219.632 170.066C219.333 167.322 219.307 164.771 219.592 162.608C219.854 160.618 226.421 155.465 236.559 148.561L238.012 147.578C246.51 141.86 253.84 137.541 256.945 136.623C256.862 135.206 256.89 133.916 257.039 132.786ZM257.289 139.831C254.245 140.954 246.625 145.523 238.312 151.184L236.979 152.097C233.237 154.675 229.781 157.189 227.17 159.238L226.444 159.813C225.28 160.745 224.336 161.549 223.653 162.194C223.31 162.516 223.039 162.793 222.849 163.014L222.716 163.171C222.686 163.203 222.679 163.191 222.689 163.091L222.698 163.024C222.695 163.05 222.691 163.072 222.689 163.091L222.649 163.431C221.142 176.783 230.701 198.587 239.852 199.022L240.067 199.026C240.084 199.027 240.105 199.028 240.128 199.028L240.067 199.026C239.893 199.018 239.962 198.968 239.989 198.953L240.27 198.806C240.479 198.695 240.725 198.561 241.01 198.403L242.314 197.667C242.812 197.381 243.369 197.06 243.976 196.705L245.531 195.793C248.499 194.043 252.202 191.815 255.979 189.507L259.572 187.3C263.941 184.605 267.889 182.119 270.855 180.189L272.383 179.186C273.33 178.559 274.13 178.016 274.77 177.567L275.001 177.402C275.34 177.161 275.623 176.952 275.848 176.779C271.813 173.789 267.84 168.266 264.313 161.097L264.059 160.577C260.659 153.548 258.202 145.938 257.289 139.831ZM220.063 173.133C218.933 173.851 215.598 175.775 211.889 177.914C207.492 180.449 202.569 183.289 200.158 184.79C194.465 188.334 189.874 191.621 186.465 194.715L187.594 196.639C192.534 205.01 195.395 209.415 197.696 211.904C196.931 210.073 196.535 207.748 196.535 204.833C196.535 204.699 196.552 204.57 196.583 204.445C196.431 203.838 196.645 203.173 197.174 202.781L198.241 201.979C198.882 201.491 199.934 200.678 201.132 199.754L201.133 199.753C203.752 197.732 207.063 195.177 208.243 194.322C211.958 191.634 214.697 190.127 217.19 189.603C218.381 189.353 219.306 190.065 219.574 191.167L219.618 191.367C219.681 191.695 219.692 192.018 219.691 192.723L219.689 192.945C219.677 195.578 219.935 197.098 221.039 198.852C221.795 200.054 222.905 201.149 224.451 202.131C224.613 202.233 224.75 202.361 224.86 202.506C227.355 200.813 229.692 199.239 231.417 198.11C228.7 195.455 226.252 191.608 224.189 186.894C222.267 182.502 220.842 177.662 220.063 173.133ZM301.632 158.242C301.126 154.239 299.191 148.658 296.339 142.839C290.452 130.831 282.654 121.805 279.526 123.067C276.502 124.287 277.292 132.974 281.64 143.114L282.033 144.012C287.013 155.18 294.133 163.441 299.454 163.62C301.37 163.684 302.119 162.104 301.632 158.242ZM188.263 203.868C190.981 208.304 192.967 211.237 194.696 213.276L177.291 223.952C175.508 220.004 173.913 216.33 172.365 212.597L188.018 204.033C188.107 203.985 188.188 203.929 188.263 203.868ZM222.176 221.137C220.487 217.609 219.321 214.071 218.68 210.526C216.431 212.054 214.474 213.377 213.215 214.204C213.431 215.295 214.232 217.885 214.922 219.727L216.208 223.07L216.33 223.396C217.594 222.858 218.914 222.332 220.282 221.823L221.187 221.489C221.519 221.369 221.849 221.251 222.176 221.137ZM222.121 204.367C220.516 203.243 219.286 201.966 218.395 200.549C216.952 198.256 216.573 196.298 216.557 193.34L216.556 193.075L216.334 193.158C214.746 193.781 212.85 194.907 210.469 196.607L210.068 196.894C208.934 197.715 205.708 200.205 203.104 202.214L203.103 202.215C201.656 203.331 200.402 204.299 199.808 204.749L199.669 204.853C199.672 210.117 200.972 212.531 203.391 213.704L203.585 213.794C204.161 214.051 204.574 214.181 205.749 214.505C205.772 214.512 205.796 214.519 205.818 214.527C207.038 214.113 208.437 213.42 210.106 212.432L210.729 212.054C212.108 211.186 215.81 208.665 219.882 205.891C220.62 205.388 221.37 204.878 222.121 204.367ZM169.597 214.111L169.837 214.688C171.501 218.673 173.23 222.618 175.192 226.921L175.955 228.59C175.705 228.76 175.376 228.941 175.014 229.1C174.495 229.329 173.968 229.49 173.571 229.544L173.445 229.556L173.254 229.326C171.771 227.482 170.05 224.349 168.807 221.233C168.144 219.574 167.672 218.052 167.459 216.883C167.373 216.407 167.333 216.007 167.336 215.703L167.346 215.503C167.349 215.454 167.349 215.429 167.337 215.425L167.383 215.393C167.649 215.208 168.325 214.809 169.33 214.258L169.597 214.111ZM191.206 210.626C190.6 210.001 189.608 209.992 188.991 210.604C187.904 211.68 186.382 212.683 183.723 214.173L181.017 215.69C180.302 216.101 179.717 216.456 179.186 216.804C178.744 217.094 178.348 217.374 177.992 217.652C177.307 218.185 177.182 219.179 177.711 219.87C178.24 220.562 179.223 220.689 179.907 220.155C180.19 219.934 180.517 219.704 180.891 219.458C181.237 219.231 181.618 218.996 182.059 218.737L182.921 218.238L185.67 216.7C188.31 215.203 189.902 214.133 191.185 212.862C191.802 212.251 191.812 211.25 191.206 210.626Z" fill="#00160A"/>
<path d="M156.166 371.289C164 415.399 193.36 448.559 230.826 456.377C237.702 457.812 249.611 458.001 261.943 456.389C277.83 454.312 293.293 449.549 306.891 441.828C344.248 421.551 372.593 380.168 376.268 343.942C379.494 312.121 367.458 282.725 345.668 261.753C345.668 261.753 277.216 295.708 243.614 315.009C214.374 331.803 156.166 371.289 156.166 371.289Z" fill="white"/>
<path d="M315.583 239.752C301.541 232.755 283.95 227.229 266.7 226.338C203.435 223.072 153.679 274.115 153.159 339.951C153.159 339.951 223.77 294.528 260.453 272.612C278.704 261.708 315.583 239.752 315.583 239.752Z" fill="white"/>
<path fill-rule="evenodd" clip-rule="evenodd" d="M445.708 206.199C445.495 217.199 433.97 235.507 415.444 256.225C402.023 271.232 386.408 285.739 373.314 295.514L372.499 296.117L373.04 298.546C376.224 312.64 380.38 327.961 378.81 343.412C374.999 380.912 345.955 423.221 307.575 444.008C293.577 451.939 277.666 456.83 261.344 458.959L259.788 459.152C247.618 460.601 235.973 460.361 228.856 458.879C201.232 453.127 177.846 433.625 163.707 405.4C163.66 405.306 163.622 405.209 163.595 405.109C161.734 406.182 159.229 407.381 158.085 407.772L154.952 408.842C121.182 420.314 87.7021 429.911 74.0258 423.921C68.8187 421.641 67.0388 417.255 69.2171 411.363C71.3323 405.637 77.2001 398.259 87.0434 389.077L87.5843 388.574C96.9124 379.939 117.627 364.159 149.728 341.234L149.736 340.813C151.303 272.885 203.547 221.101 269.217 225.329C289.303 226.622 305.299 233.831 313.288 238.258L316.802 236.353C349.756 218.557 376.197 206.048 396.371 198.561C429.548 186.248 445.956 192.004 445.708 206.199ZM397.451 205.858C360.353 219.626 301.724 250.591 220.093 300.401L217.612 301.917C154.049 340.778 111.958 370.301 89.7016 390.906L88.6049 391.93L87.565 392.915C70.8579 408.857 67.8966 417.788 75.2724 421.018C87.8981 426.548 121.803 417.225 155.007 406.226L158.085 405.201C161.046 404.21 163.011 403.641 164.226 403.378C164.279 403.341 164.336 403.306 164.398 403.275C164.813 403.063 165.278 403.055 165.679 403.214C165.766 403.231 165.823 403.258 165.853 403.296C166.123 403.444 166.353 403.674 166.502 403.972C180.229 431.372 202.846 448.069 229.489 453.617C236.405 455.056 248.072 455.267 260.214 453.751L260.943 453.658C276.889 451.578 292.419 448.967 306.068 441.234C343.573 420.92 371.99 379.525 375.694 343.089C377.277 327.517 375.257 312.231 369.887 298.004C369.443 298.317 369.003 298.624 368.567 298.925C367.743 299.493 368.051 298.572 369.491 296.166C369.567 295.852 369.739 295.565 369.985 295.351L370.429 294.642C370.584 294.394 370.747 294.138 370.918 293.869L372.775 292.288C390.274 277.34 403.722 264.613 413.119 254.104L414.192 252.898C431.578 233.248 442.386 215.89 442.564 206.141C442.76 195.446 428.788 194.227 397.451 205.858ZM240.149 405.937C244.352 418.911 237.994 427.255 226.801 427.687C216.458 428.085 207.04 421.503 207.52 412.15C207.936 404.068 213.416 395.425 220.163 392.253C228.323 388.414 235.98 393.071 240.149 405.937ZM221.815 395.837C216.417 398.377 211.773 405.7 211.431 412.355C211.092 418.984 218.347 424.054 226.651 423.735C235.333 423.399 239.791 417.55 236.427 407.166C232.925 396.356 227.599 393.118 221.815 395.837ZM325.605 379.499C330.969 389.734 329.565 399.789 321.318 404.295L321.087 404.418L320.968 404.539C309.909 415.598 296.094 416.94 287.086 408.924L286.776 408.644C276.4 399.042 278.871 382.549 295.385 369.618C306.011 361.297 318.992 366.877 325.605 379.499ZM297.441 372.297C282.45 384.036 280.343 398.094 289.044 406.143C295.284 411.917 304.505 412.236 313.117 406.633L313.285 406.52L313.222 406.507C312.626 406.348 312.148 405.862 312.012 405.228L311.985 405.067C311.876 404.138 312.534 403.294 313.454 403.185C315.56 402.932 317.387 402.419 318.936 401.685L319.149 401.58L319.404 401.312C320.415 400.237 321.402 399.069 322.358 397.805L322.676 397.38C323.035 396.894 323.602 396.658 324.158 396.704L324.201 396.708L324.224 396.666C326.234 392.652 325.759 387.214 322.814 381.426L322.639 381.085C316.888 370.109 306.137 365.487 297.441 372.297ZM397.266 250.64C396.403 253.736 393.778 257.983 389.753 263.014C382.737 271.783 372.198 281.989 362.985 288.969L365.029 286.698C365.009 286.68 364.991 286.656 364.977 286.629L364.272 285.32C359.662 276.822 354.526 268.439 346.226 261.606C324.741 270.552 300.106 282.781 277.662 295.568L270.305 299.768C216.13 330.761 187.627 349.317 157.147 372.128C158.298 377.36 159.747 382.466 161.483 387.414C161.756 388.19 158.197 391.096 157.544 390.736C151.464 394.851 141.944 397.84 136.522 397.995C131.239 398.147 128.187 395.987 129.76 391.681C131.075 388.078 136.03 382.939 144.947 376.053L145.963 375.275L148.018 373.715C181.577 348.34 214.8 327.749 276.122 292.812L278.689 291.358C320.749 267.647 369.453 246.286 391.761 244.315C396.347 243.909 398.427 246.472 397.266 250.64ZM153.067 375.198L146.036 380.556C139.763 385.36 135.24 388.912 132.799 391.191L132.619 391.359C129.637 394.184 133.012 394.93 136.433 394.833C141.617 394.684 149.556 390.715 156.276 387.102C155.035 383.216 153.963 379.243 153.067 375.198ZM263.048 358.02C263.886 358.234 264.394 359.095 264.181 359.942C263.968 360.788 263.116 361.301 262.278 361.086C258.065 360.005 255.577 360.421 254.769 361.566C254.234 362.327 254.53 363.622 255.532 364.45C256.315 365.097 257.357 365.405 258.073 365.248C258.696 365.111 259.047 364.625 259.047 363.41C259.047 362.536 259.747 361.828 260.612 361.828C261.478 361.828 262.179 362.536 262.179 363.41C262.179 366.052 260.871 367.871 258.74 368.339C257.027 368.716 255.032 368.124 253.548 366.899C251.358 365.089 250.643 361.965 252.216 359.732C253.941 357.283 257.722 356.653 263.048 358.02ZM194.237 352.211C196.653 352.942 197.693 354.816 198.021 357.626L198.054 357.931L198.093 358.394C198.099 358.471 198.104 358.55 198.11 358.634L198.192 360.24L198.217 360.601C198.229 360.761 198.243 360.891 198.259 361.007L198.301 361.248L198.327 361.355L198.371 361.394C198.854 361.872 198.982 362.622 198.67 363.241L198.589 363.381C198.12 364.116 197.151 364.326 196.424 363.853C195.424 363.202 195.196 362.531 195.075 360.606L194.976 358.723C194.964 358.553 194.951 358.406 194.935 358.239C194.757 356.396 194.313 355.537 193.337 355.242C190.601 354.414 189.031 355.259 188.534 357.107C188.091 358.753 188.731 360.482 189.854 360.963L190.138 361.07C190.872 361.387 191.261 362.221 191.013 363.005C190.751 363.836 189.869 364.296 189.045 364.031C186.062 363.071 184.645 359.492 185.511 356.276C186.477 352.688 189.836 350.88 194.237 352.211ZM307.254 327.986C311.593 334.145 310.786 341.982 303.826 345.528C303.054 345.922 302.112 345.609 301.722 344.828C301.332 344.048 301.642 343.096 302.415 342.704C307.454 340.136 308.029 334.545 304.701 329.819C301.469 325.229 296.969 324.725 293.876 329.684C290.598 334.943 290.836 338.029 293.197 339.419C295.07 340.523 298.088 340.291 298.917 339.389L298.997 339.29C299.499 338.578 300.477 338.412 301.182 338.918C301.887 339.425 302.052 340.413 301.549 341.125C299.808 343.595 294.839 344.049 291.618 342.153C287.495 339.725 287.101 334.613 291.225 327.998C295.641 320.915 302.844 321.723 307.254 327.986ZM242.306 318.913C243.121 318.913 243.79 319.542 243.866 320.343L243.873 320.496C243.873 320.775 244.129 321.085 245.049 321.767L245.919 322.397C246.867 323.095 247.324 323.529 247.757 324.219C248.744 325.796 249.304 327.402 249.304 329.289C249.304 334.125 242.111 340.702 234.261 343.628C224.85 347.136 217.14 344.535 215.042 334.782C214.857 333.927 215.394 333.085 216.24 332.9C217.085 332.714 217.919 333.256 218.104 334.11C219.731 341.678 225.353 343.576 233.176 340.659C239.931 338.141 246.17 332.437 246.17 329.289C246.17 328.073 245.804 327.021 245.108 325.909L245.014 325.776C244.854 325.573 244.605 325.352 244.156 325.016L243.122 324.264C241.406 322.986 240.741 322.123 240.741 320.496C240.741 319.622 241.441 318.913 242.306 318.913ZM249.66 231.224L248.671 231.336C195.216 237.829 155.115 281.009 152.928 338.953L158.664 334.877C175.126 323.206 194.235 309.875 215.989 294.883L220.228 292.296C232.884 284.585 244.985 277.328 256.535 270.52C256.324 270.147 256.265 269.689 256.409 269.248C257.216 266.759 257.963 265.085 259.331 263.41C263.61 258.166 269.474 255.605 273.628 258.897C274.037 259.221 274.244 259.71 274.227 260.197L277.917 258.071C289.538 251.39 300.535 245.219 310.913 239.55L306.859 238.386C300.848 236.677 293.369 234.651 285.919 233.091C285.988 238.097 282.277 242.094 276.113 244.845C270.871 247.182 264.043 248.44 259.187 248.147C250.103 247.601 244.99 239.554 249.66 231.224ZM343.43 299.931C347.263 310.508 344.1 320.127 334.528 320.064C320.89 319.974 307.572 307.948 309.726 297.174C310.686 292.368 314.264 288.116 320.485 285.994C330.42 282.605 339.527 289.163 343.43 299.931ZM321.488 288.992C316.346 290.746 313.54 294.08 312.797 297.8C311.087 306.351 322.683 316.822 334.548 316.9C341.345 316.945 343.682 309.836 340.487 301.018C337.105 291.688 329.546 286.244 321.488 288.992ZM206.299 251.539L206.411 251.702L207.165 252.913C207.534 253.528 207.865 254.131 208.18 254.782C211.649 261.945 211.559 271.337 205.688 284.374C203.028 290.28 196.252 298.217 190.334 302.953C182.78 309.001 177.138 310.375 170.405 309.628L168.406 309.391L168.163 309.368C168.029 309.358 167.943 309.358 167.85 309.36L167.713 309.367C167.609 309.371 167.573 309.366 167.566 309.353V309.342L167.516 309.424C167.062 310.082 166.18 310.298 165.471 309.9C164.715 309.475 164.442 308.512 164.863 307.749C165.426 306.726 166.367 306.264 167.564 306.206C167.882 306.191 168.218 306.202 168.617 306.236L169.084 306.281L170.377 306.44C176.51 307.191 181.39 306.076 188.388 300.474C193.947 296.024 200.407 288.458 202.836 283.064C208.331 270.864 208.411 262.46 205.365 256.172C205.162 255.753 204.951 255.355 204.722 254.955L204.394 254.402L203.736 253.353C203.277 252.612 203.499 251.636 204.231 251.172C204.919 250.736 205.811 250.906 206.299 251.539ZM392.034 247.467C382.02 248.351 366.322 253.347 348.223 260.779L348.752 261.252C353.789 265.815 363.951 276.638 367.132 284.358L370.3 280.809C378.118 272.027 383.79 265.432 387.316 261.025L388.03 260.122C391.4 255.802 393.579 252.192 394.25 249.784L394.346 249.418C394.763 247.68 394.279 247.268 392.034 247.467ZM242.039 252.605C245.937 254.509 247.52 258.747 244.955 262.59C244.471 263.315 243.497 263.506 242.78 263.017C242.062 262.529 241.873 261.546 242.357 260.822C243.767 258.708 242.971 256.576 240.674 255.454C238.256 254.273 235.605 254.953 234.238 257.531C232.977 259.906 232.89 263.123 233.897 265.23C234.781 267.08 236.066 267.435 238.028 265.943C238.72 265.417 239.702 265.557 240.221 266.256C240.742 266.953 240.604 267.945 239.913 268.471C236.337 271.189 232.798 270.213 231.075 266.605C229.63 263.581 229.746 259.299 231.476 256.036C233.683 251.876 238.182 250.723 242.039 252.605ZM261.748 265.423C261.017 266.317 260.496 267.262 260.012 268.473C264.048 266.105 268.016 263.791 271.917 261.532L271.803 261.465L271.694 261.386C269.302 259.49 265.086 261.332 261.748 265.423ZM255.067 230.74L253.697 230.838L253.605 230.955C248.19 237.866 250.275 243.475 257.672 244.273C262.983 244.845 277.082 240.864 278.736 239.468C280.347 238.107 282.384 234.979 282.698 232.444C277.913 231.535 273.232 230.868 269.056 230.652C264.789 230.432 260.581 230.437 256.444 230.658L255.067 230.74Z" fill="#00160A"/>
<path d="M396.501 206.246C429.678 193.933 428.918 197.587 397.581 209.216C360.483 222.984 220.446 309.256 220.446 309.256C156.882 348.117 152.127 342.119 213.737 304.303L217.535 301.976C218.251 301.538 288.395 256.828 338.517 232.907C344.157 230.216 392.723 207.648 396.501 206.246Z" fill="white"/>
<path fill-rule="evenodd" clip-rule="evenodd" d="M453.788 144.949C443.507 144.418 435.483 152.487 435.399 163.044C435.33 171.889 440.353 179.399 447.553 180.898C449.449 181.293 454.92 181.293 459.665 178.604L460.058 178.385C466.042 174.964 470.111 168.455 470.655 163.1C471.62 153.607 464.068 145.48 453.788 144.949ZM437.637 163.062C437.637 162.994 437.639 162.926 437.64 162.858C437.704 162.837 437.767 162.81 437.828 162.777C445.888 158.392 450.864 155.049 452.851 152.636C454.163 151.043 454.802 149.247 454.75 147.294C456.104 147.446 457.394 147.745 458.604 148.175C458.596 148.233 458.593 148.294 458.595 148.354C458.694 151.164 457.953 153.41 456.375 155.159C454.564 157.168 452.369 159.082 449.872 160.885C447.204 162.813 444.34 164.516 441.474 165.974C440.805 166.315 440.169 166.624 439.573 166.904L438.707 167.3C438.583 167.355 438.469 167.406 438.362 167.452L438.105 167.562C437.788 166.137 437.625 164.627 437.637 163.062ZM438.734 169.747C439.443 171.731 440.469 173.49 441.74 174.922L442.409 174.534C452.928 168.384 459.457 163.552 461.928 160.144C464.428 156.698 465.318 154.052 464.759 152.252C464.746 152.21 464.735 152.168 464.728 152.125C463.627 150.958 462.316 149.955 460.839 149.162C460.776 152.15 459.841 154.672 458.031 156.681C456.104 158.818 453.791 160.832 451.175 162.724C448.405 164.726 445.443 166.485 442.48 167.992C441.617 168.432 440.803 168.824 440.056 169.167L439.183 169.557L438.734 169.747ZM447.111 178.457C445.79 178.058 444.559 177.403 443.451 176.536C454.279 170.212 461.017 165.228 463.734 161.48C465.42 159.154 466.498 157.063 466.936 155.198C467.48 156.225 467.892 157.321 468.157 158.464C468.1 158.581 468.063 158.71 468.049 158.846C467.776 161.488 466.427 164.11 463.962 166.722C461.596 169.228 456.49 172.844 448.688 177.52L447.111 178.457ZM450.894 178.822C453.296 178.669 456.234 177.957 458.607 176.613C463.023 174.221 466.568 169.718 467.906 165.379C467.259 166.359 466.484 167.326 465.582 168.282C463.152 170.855 458.269 174.354 450.894 178.822ZM438.288 159.951L437.89 160.17C439.16 152.702 445.068 147.343 452.507 147.188C452.586 148.656 452.134 149.972 451.131 151.191C449.507 153.163 445.201 156.114 438.288 159.951Z" fill="#00160A"/>
<path fill-rule="evenodd" clip-rule="evenodd" d="M534.566 123.294C534.776 123.318 534.921 123.509 534.897 123.718C534.896 124.026 534.7 124.194 534.436 124.302C534.198 124.398 533.818 124.362 533.596 124.392C531.172 124.58 529.268 122.78 528.431 120.459C527.625 118.229 527.84 115.563 529.3 113.919C529.469 113.725 529.76 113.705 529.953 113.875C530.144 114.045 531.235 114.34 531.066 114.534C529.862 115.954 529.046 116.816 530.183 120.188C531.319 123.559 534.411 123.276 534.566 123.294Z" fill="#E7EAEE"/>
<path fill-rule="evenodd" clip-rule="evenodd" d="M148.744 147.434C148.107 146.991 147.236 147.155 146.799 147.798C146.362 148.442 146.524 149.321 147.16 149.762C147.86 150.247 148.478 150.695 149.023 151.111C148.436 151.584 147.849 152.125 147.239 152.74L146.002 154.009C145.458 154.564 145.462 155.458 146.011 156.007C146.559 156.556 147.445 156.552 147.989 155.998L149.473 154.483C150.077 153.889 150.643 153.392 151.212 152.979C152.477 154.246 152.862 155.174 152.883 156.098V156.333L152.889 156.478C152.961 157.191 153.557 157.746 154.282 157.746C155.054 157.746 155.68 157.114 155.68 156.333L155.679 156.056C155.654 154.617 155.151 153.249 153.798 151.685C154.692 151.415 155.699 151.265 156.921 151.2C157.692 151.16 158.285 150.495 158.244 149.716C158.205 148.937 157.546 148.338 156.775 148.379C154.653 148.49 153.005 148.849 151.537 149.527C150.923 149.02 150.228 148.489 149.444 147.927L148.744 147.434Z" fill="#00160A"/>
<path fill-rule="evenodd" clip-rule="evenodd" d="M358.319 456.961L359.29 456.965C364.713 457.016 368.95 457.509 376.931 458.803C377.846 458.952 378.469 459.822 378.322 460.746C378.175 461.67 377.314 462.299 376.398 462.151L373.783 461.735C367.179 460.711 363.374 460.351 358.319 460.351C340.779 460.351 329.582 471.44 331.477 488.448C331.58 489.378 330.917 490.217 329.996 490.321C329.075 490.426 328.244 489.757 328.14 488.827C326.009 469.698 338.873 456.961 358.319 456.961ZM371.904 463.804L371.741 463.659C371.582 463.522 371.339 463.542 371.206 463.702C371.067 463.863 371.089 464.104 371.246 464.241L371.415 464.386C371.574 464.524 371.811 464.505 371.95 464.344C372.083 464.184 372.067 463.942 371.904 463.804ZM341.489 467.35C340.887 466.861 340.007 466.958 339.523 467.566C337.569 470.022 336.145 472.414 335.257 474.749C334.393 477.021 334.098 480.838 334.322 486.296L334.377 487.448C334.417 488.226 335.075 488.826 335.847 488.784C336.618 488.743 337.211 488.078 337.17 487.299C336.873 481.598 337.126 477.714 337.868 475.763C338.646 473.72 339.921 471.575 341.703 469.336C342.187 468.728 342.092 467.839 341.489 467.35ZM356.754 462.676C357.44 462.317 358.284 462.589 358.64 463.281C358.994 463.974 358.726 464.827 358.041 465.185C355.2 466.672 353.03 469.163 351.518 472.715C349.895 476.528 348.567 479.929 347.535 482.919C347.28 483.655 346.482 484.045 345.753 483.787C345.023 483.53 344.639 482.725 344.894 481.989C345.95 478.931 347.301 475.469 348.948 471.6C350.706 467.47 353.313 464.477 356.754 462.676ZM364.885 462.603C364.376 462.015 363.492 461.957 362.912 462.471C360.577 464.537 358.783 466.415 357.528 468.119C356.281 469.811 354.822 472.341 353.133 475.726C352.785 476.423 353.062 477.272 353.752 477.623C354.441 477.975 355.283 477.695 355.63 476.997C357.254 473.746 358.64 471.343 359.772 469.805C360.895 468.281 362.557 466.54 364.755 464.595C365.336 464.081 365.394 463.189 364.885 462.603ZM359.778 478.554C359.198 479.068 358.314 479.01 357.805 478.423C357.295 477.836 357.354 476.944 357.935 476.429C360.132 474.485 361.795 472.744 362.918 471.219C364.05 469.682 365.437 467.28 367.06 464.027C367.408 463.331 368.248 463.051 368.938 463.402C369.628 463.754 369.905 464.603 369.557 465.299C367.868 468.684 366.408 471.215 365.162 472.906C363.907 474.61 362.113 476.489 359.778 478.554ZM349.189 463.828C348.553 463.385 347.682 463.546 347.243 464.188C344.116 468.761 342.12 472.178 341.236 474.5C340.351 476.829 339.739 479.969 339.383 483.938C339.314 484.714 339.882 485.401 340.65 485.471C341.419 485.542 342.099 484.969 342.169 484.192C342.503 480.461 343.069 477.563 343.848 475.513C344.574 473.602 346.269 470.654 348.917 466.719L349.545 465.793C349.984 465.151 349.824 464.272 349.189 463.828Z" fill="#00160A"/>
<path fill-rule="evenodd" clip-rule="evenodd" d="M322.637 455.497L323.601 457.66L325.798 458.297C325.917 458.331 325.986 458.457 325.951 458.576C325.941 458.614 325.921 458.647 325.895 458.674L324.225 460.353L324.318 462.768C324.323 462.893 324.227 462.998 324.104 463.003C324.062 463.004 324.02 462.994 323.984 462.973L322.095 461.886C322.035 461.852 321.964 461.847 321.901 461.873L319.88 462.683C319.764 462.729 319.635 462.673 319.589 462.556C319.574 462.517 319.569 462.474 319.577 462.433L320.002 460.055L318.581 458.157C318.506 458.058 318.525 457.916 318.624 457.842C318.654 457.818 318.69 457.803 318.728 457.797L320.992 457.476L322.244 455.47C322.31 455.364 322.448 455.332 322.552 455.398C322.589 455.422 322.619 455.457 322.637 455.497Z" fill="#00160A"/>
<path fill-rule="evenodd" clip-rule="evenodd" d="M400.465 152.659C400.979 153.12 401.622 153.951 402.189 154.85L402.92 154.523L403.783 154.15C403.957 154.07 404.068 154.007 404.102 153.956C404.202 153.769 404.431 153.697 404.618 153.797C404.8 153.897 404.874 154.128 404.775 154.315C404.706 154.492 404.222 155.048 403.321 155.594C403.159 155.692 402.978 155.784 402.785 155.873C403.117 156.5 403.377 157.107 403.5 157.592C403.685 158.308 403.537 158.817 403.294 158.995C403.055 159.172 402.456 159.204 401.545 158.44C401.377 158.312 401.351 158.07 401.478 157.903C401.605 157.736 401.842 157.705 402.011 157.834C402.184 157.963 402.359 158.036 402.5 158.089L402.432 157.815C402.405 157.717 402.372 157.615 402.324 157.515C402.162 157.154 401.954 156.742 401.72 156.319C401.007 156.591 400.196 156.837 399.32 156.956C398.894 157.014 398.458 157.026 398.006 157.021C397.746 157.039 397.521 156.84 397.504 156.577C397.487 156.314 397.684 156.087 397.944 156.069C398.998 155.967 399.973 155.697 400.833 155.396L401.114 155.293C400.649 154.558 400.15 153.891 399.723 153.515C399.492 153.307 399.468 152.948 399.671 152.711C399.878 152.475 400.234 152.451 400.465 152.659Z" fill="#00160A"/>
<path fill-rule="evenodd" clip-rule="evenodd" d="M92.5003 343.894C91.0384 343.991 88.7176 344.367 86.822 345.126C85.1995 345.778 85.1995 363.462 90.745 364.873C96.2583 366.73 102.288 364.271 101.567 354.807C101.554 354.609 101.396 354.07 101.214 353.454C100.948 352.551 100.632 351.478 100.65 351.058C100.725 349.572 100.339 348.319 99.3181 347.533C98.2193 345.179 96.0645 343.662 92.5003 343.894ZM91.7067 360.568C88.9929 358.519 89.0882 348.961 92.1854 348.323C94.1132 349.82 95.8728 351.98 96.4661 356.143C95.8021 358.436 94.4002 359.762 93.1739 360.922C93.0433 361.047 92.9137 361.169 92.7873 361.29C92.4382 361.089 92.0773 360.843 91.7067 360.568Z" fill="white"/>
<path fill-rule="evenodd" clip-rule="evenodd" d="M88.4116 354.992C88.1653 353.506 88.3335 351.841 89.0735 350.064C89.4087 349.259 90.2912 348.604 91.3954 348.164C92.6859 347.649 94.2656 347.393 95.2605 347.328C97.6863 347.17 99.1524 348.195 99.8999 349.787C100.594 350.318 100.856 351.166 100.805 352.171C100.784 352.648 101.407 354.376 101.428 354.706C101.916 361.107 97.8116 362.771 94.0599 361.517C92.6345 362.249 91.2604 362.37 90.2259 361.593C89.2973 360.9 88.5851 359.436 88.4213 356.857C88.3784 356.191 88.3752 355.571 88.4116 354.992ZM95.0656 350.777C92.9129 351.204 92.823 357.48 94.7025 358.818C94.9596 358.998 95.2091 359.158 95.4522 359.289C96.3604 358.462 97.0383 357.793 97.4228 356.425C97.8073 355.056 96.4011 351.755 95.0656 350.777Z" fill="#FFB61D"/>
<path fill-rule="evenodd" clip-rule="evenodd" d="M235.31 511.733C234.673 511.292 233.802 511.455 233.365 512.099C232.928 512.741 233.09 513.621 233.726 514.062C234.426 514.548 235.045 514.996 235.59 515.412C235.002 515.884 234.415 516.426 233.805 517.041L232.568 518.31C232.024 518.863 232.029 519.758 232.577 520.308C233.125 520.857 234.011 520.853 234.555 520.299L236.039 518.783C236.644 518.19 237.209 517.693 237.779 517.28C239.044 518.546 239.428 519.475 239.448 520.397V520.634L239.456 520.779C239.528 521.491 240.123 522.047 240.847 522.047C241.62 522.047 242.246 521.414 242.246 520.634V520.356C242.22 518.918 241.717 517.548 240.363 515.984C241.257 515.716 242.265 515.565 243.487 515.501C244.258 515.46 244.851 514.796 244.811 514.017C244.77 513.237 244.112 512.639 243.341 512.68C241.22 512.791 239.572 513.148 238.102 513.826C237.49 513.32 236.794 512.789 236.009 512.227L235.31 511.733Z" fill="#00160A"/>
<path fill-rule="evenodd" clip-rule="evenodd" d="M235.31 511.733C234.673 511.292 233.802 511.455 233.365 512.099C232.928 512.741 233.09 513.621 233.726 514.062C234.426 514.548 235.045 514.996 235.59 515.412C235.002 515.884 234.415 516.426 233.805 517.041L232.568 518.31C232.024 518.863 232.029 519.758 232.577 520.308C233.125 520.857 234.011 520.853 234.555 520.299L236.039 518.783C236.644 518.19 237.209 517.693 237.779 517.28C239.044 518.546 239.428 519.475 239.448 520.397V520.634L239.456 520.779C239.528 521.491 240.123 522.047 240.847 522.047C241.62 522.047 242.246 521.414 242.246 520.634V520.356C242.22 518.918 241.717 517.548 240.363 515.984C241.257 515.716 242.265 515.565 243.487 515.501C244.258 515.46 244.851 514.796 244.811 514.017C244.77 513.237 244.112 512.639 243.341 512.68C241.22 512.791 239.572 513.148 238.102 513.826C237.49 513.32 236.794 512.789 236.009 512.227L235.31 511.733Z" fill="#00160A"/>
<path fill-rule="evenodd" clip-rule="evenodd" d="M283.11 473.035L284.073 475.198L286.271 475.835C286.39 475.87 286.458 475.994 286.424 476.115C286.413 476.151 286.394 476.186 286.367 476.213L284.698 477.891L284.791 480.306C284.796 480.431 284.7 480.536 284.577 480.541C284.535 480.543 284.493 480.533 284.457 480.511L282.567 479.424C282.507 479.391 282.437 479.385 282.374 479.411L280.353 480.221C280.238 480.268 280.107 480.211 280.061 480.095C280.046 480.056 280.042 480.013 280.05 479.972L280.475 477.593L279.054 475.696C278.979 475.596 278.998 475.455 279.096 475.379C279.127 475.356 279.163 475.341 279.2 475.336L281.464 475.015L282.716 473.007C282.783 472.902 282.921 472.871 283.025 472.937C283.062 472.961 283.092 472.995 283.11 473.035Z" fill="#00160A"/>
<path fill-rule="evenodd" clip-rule="evenodd" d="M161.854 458.17L163.493 459.87L165.773 459.71C165.896 459.701 166.003 459.795 166.012 459.919C166.015 459.957 166.008 459.996 165.992 460.031L164.991 462.184L165.897 464.422C165.944 464.538 165.889 464.67 165.775 464.716C165.736 464.733 165.694 464.738 165.652 464.73L163.509 464.362C163.442 464.351 163.373 464.37 163.323 464.416L161.697 465.876C161.605 465.959 161.463 465.951 161.381 465.857C161.354 465.826 161.335 465.787 161.329 465.745L160.923 463.363L158.945 462.072C158.841 462.004 158.811 461.864 158.877 461.759C158.899 461.727 158.926 461.701 158.961 461.682L160.978 460.599L161.476 458.28C161.502 458.158 161.621 458.081 161.742 458.107C161.785 458.116 161.824 458.138 161.854 458.17Z" fill="#00160A"/>
<path fill-rule="evenodd" clip-rule="evenodd" d="M136.272 303.267L137.236 305.43L139.434 306.067C139.553 306.102 139.621 306.226 139.587 306.346C139.576 306.383 139.557 306.417 139.53 306.444L137.861 308.122L137.954 310.537C137.959 310.663 137.863 310.768 137.74 310.772C137.698 310.774 137.656 310.763 137.62 310.743L135.73 309.656C135.67 309.622 135.6 309.617 135.537 309.643L133.516 310.453C133.4 310.499 133.27 310.442 133.224 310.326C133.209 310.287 133.205 310.244 133.213 310.203L133.638 307.825L132.217 305.927C132.142 305.828 132.161 305.686 132.259 305.61C132.291 305.588 132.326 305.573 132.363 305.567L134.627 305.246L135.879 303.238C135.946 303.134 136.084 303.101 136.188 303.168C136.225 303.192 136.255 303.227 136.272 303.267Z" fill="#00160A"/>
<path fill-rule="evenodd" clip-rule="evenodd" d="M136.047 305.421L136.457 306.34L137.39 306.61C137.44 306.625 137.469 306.678 137.455 306.729C137.451 306.745 137.442 306.759 137.431 306.77L136.722 307.484L136.761 308.509C136.763 308.562 136.723 308.607 136.67 308.609C136.652 308.61 136.635 308.606 136.62 308.597L135.817 308.135C135.792 308.12 135.761 308.118 135.734 308.129L134.876 308.474C134.827 308.493 134.771 308.469 134.752 308.419C134.746 308.403 134.745 308.385 134.748 308.368L134.928 307.356L134.324 306.552C134.293 306.509 134.3 306.449 134.343 306.416C134.356 306.407 134.371 306.4 134.387 306.398L135.349 306.262L135.88 305.409C135.908 305.364 135.967 305.351 136.012 305.379C136.027 305.389 136.039 305.404 136.047 305.421Z" fill="#E7EAEE"/>
<path fill-rule="evenodd" clip-rule="evenodd" d="M21.6933 398.17L22.6572 400.334L24.8548 400.971C24.9737 401.005 25.0422 401.131 25.0079 401.25C24.9972 401.288 24.978 401.321 24.9512 401.348L23.2815 403.027L23.3747 405.442C23.3801 405.567 23.2837 405.672 23.1605 405.677C23.1188 405.678 23.077 405.668 23.0406 405.647L21.1514 404.56C21.0914 404.526 21.0207 404.521 20.9575 404.547L18.9366 405.357C18.8209 405.403 18.6914 405.347 18.6453 405.23C18.6303 405.191 18.626 405.148 18.6335 405.107L19.0587 402.728L17.6375 400.831C17.5625 400.732 17.5818 400.59 17.6804 400.515C17.7103 400.492 17.7468 400.477 17.7842 400.471L20.0483 400.15L21.3002 398.143C21.3666 398.037 21.5048 398.006 21.6087 398.072C21.6462 398.096 21.6761 398.13 21.6933 398.17Z" fill="#00160A"/>
<path fill-rule="evenodd" clip-rule="evenodd" d="M118.533 203.936L119.233 204.429C120.018 204.991 122.952 207.784 123.565 208.29C125.032 207.61 126.681 207.253 128.802 207.142C129.573 207.101 130.231 207.7 130.272 208.479C130.311 209.257 129.719 209.922 128.948 209.962C127.725 210.027 126.717 210.178 125.823 210.447C127.178 212.012 127.681 213.38 127.707 214.818V215.096C127.707 215.877 127.081 216.508 126.308 216.508C125.584 216.508 124.989 215.953 124.917 215.241L124.909 215.096V214.859C124.889 213.936 124.504 213.008 123.24 211.742C122.67 212.155 122.103 212.651 121.499 213.245L120.016 214.761C119.472 215.314 118.586 215.319 118.038 214.769C117.49 214.22 117.485 213.325 118.03 212.771L119.266 211.503C119.876 210.887 120.463 210.346 121.051 209.874C120.018 207.494 116.151 204.944 116.588 204.3C117.025 203.658 117.896 203.494 118.533 203.936Z" fill="#00160A"/>
<path fill-rule="evenodd" clip-rule="evenodd" d="M388.391 366.844L390.296 368.23L392.514 367.673C392.634 367.643 392.756 367.716 392.786 367.837C392.795 367.874 392.795 367.914 392.785 367.951L392.17 370.247L393.447 372.291C393.512 372.397 393.481 372.537 393.376 372.604C393.341 372.626 393.3 372.639 393.258 372.639L391.083 372.652C391.016 372.652 390.951 372.683 390.91 372.737L389.56 374.46C389.484 374.557 389.343 374.575 389.246 374.497C389.213 374.471 389.189 374.436 389.175 374.396L388.365 372.122L386.195 371.197C386.081 371.148 386.027 371.016 386.075 370.901C386.09 370.865 386.114 370.835 386.144 370.811L387.945 369.388L388.036 367.019C388.041 366.894 388.145 366.797 388.269 366.801C388.313 366.803 388.355 366.818 388.391 366.844Z" fill="#00160A"/>
<path fill-rule="evenodd" clip-rule="evenodd" d="M410.28 278.312L410.857 280.612L412.912 281.624C413.023 281.678 413.069 281.815 413.014 281.926C412.997 281.961 412.973 281.991 412.942 282.013L411.008 283.373L410.686 285.768C410.669 285.891 410.556 285.978 410.433 285.962C410.393 285.955 410.353 285.938 410.321 285.911L408.647 284.509C408.594 284.466 408.525 284.449 408.458 284.463L406.328 284.906C406.207 284.931 406.089 284.853 406.065 284.731C406.056 284.689 406.059 284.646 406.073 284.606L406.901 282.338L405.827 280.222C405.771 280.11 405.814 279.974 405.925 279.918C405.959 279.899 405.996 279.892 406.035 279.893L408.319 279.973L409.898 278.216C409.98 278.123 410.122 278.117 410.214 278.201C410.246 278.23 410.269 278.269 410.28 278.312Z" fill="#00160A"/>
<path fill-rule="evenodd" clip-rule="evenodd" d="M360.432 185.774L361.009 188.074L363.063 189.086C363.175 189.141 363.221 189.277 363.166 189.389C363.15 189.424 363.124 189.453 363.093 189.474L361.161 190.835L360.838 193.23C360.821 193.353 360.708 193.441 360.585 193.423C360.544 193.418 360.505 193.401 360.473 193.374L358.799 191.972C358.746 191.928 358.678 191.91 358.61 191.924L356.481 192.368C356.36 192.394 356.241 192.315 356.217 192.193C356.208 192.151 356.211 192.108 356.225 192.068L357.053 189.801L355.98 187.683C355.923 187.573 355.967 187.437 356.076 187.379C356.111 187.362 356.148 187.353 356.187 187.354L358.471 187.435L360.05 185.678C360.132 185.586 360.273 185.578 360.366 185.663C360.398 185.692 360.421 185.731 360.432 185.774Z" fill="#00160A"/>
<path fill-rule="evenodd" clip-rule="evenodd" d="M507.697 208.307L508.548 208.23C509.508 208.151 510.379 208.108 511.172 208.097C511.862 206.625 512.898 205.28 514.452 203.818C515.016 203.286 515.902 203.317 516.429 203.887C516.955 204.458 516.924 205.352 516.359 205.884C515.464 206.726 514.787 207.496 514.274 208.284C516.308 208.603 517.563 209.324 518.499 210.409L518.676 210.622C519.173 211.219 519.096 212.111 518.504 212.612C517.949 213.082 517.139 213.043 516.63 212.544L516.533 212.438L516.382 212.257C515.779 211.563 514.893 211.101 513.119 210.953C512.945 211.639 512.827 212.386 512.743 213.233L512.57 215.358C512.507 216.135 511.83 216.713 511.061 216.649C510.291 216.584 509.719 215.902 509.783 215.124L509.923 213.349C509.998 212.482 510.104 211.686 510.253 210.942C509.572 210.978 508.812 211.037 507.967 211.119C507.198 211.193 506.514 210.626 506.44 209.849C506.366 209.072 506.928 208.382 507.697 208.307Z" fill="#00160A"/>
<path fill-rule="evenodd" clip-rule="evenodd" d="M394.755 305.815C394.502 306.461 393.948 307.355 393.305 308.201L393.86 308.782L394.502 309.473L394.646 309.611C394.708 309.668 394.757 309.701 394.792 309.711C395 309.741 395.145 309.935 395.117 310.146C395.087 310.352 394.896 310.502 394.689 310.471C394.5 310.467 393.817 310.198 393.002 309.529C392.854 309.408 392.707 309.269 392.557 309.115C392.087 309.645 391.613 310.1 391.202 310.383C390.6 310.803 390.076 310.837 389.827 310.666C389.581 310.5 389.345 309.943 389.745 308.818C389.808 308.613 390.023 308.506 390.223 308.57C390.421 308.634 390.531 308.848 390.469 309.051C390.408 309.26 390.399 309.451 390.398 309.604L390.631 309.445C390.712 309.385 390.796 309.318 390.873 309.24C391.153 308.962 391.465 308.624 391.779 308.258C391.282 307.674 390.775 306.99 390.365 306.199C390.165 305.813 390.006 305.404 389.854 304.973C389.75 304.733 389.858 304.451 390.097 304.344C390.335 304.238 390.615 304.348 390.719 304.588C391.176 305.554 391.759 306.386 392.335 307.099L392.526 307.331C393.051 306.639 393.501 305.938 393.705 305.404C393.819 305.113 394.146 304.968 394.435 305.079C394.726 305.195 394.87 305.524 394.755 305.815Z" fill="#E7EAEE"/>
<path fill-rule="evenodd" clip-rule="evenodd" d="M381.098 17.9298C381.95 17.7795 382.762 18.356 382.91 19.217C383.059 20.0769 382.488 20.8967 381.636 21.0471C377.582 21.7599 372.704 24.2065 368.488 28.149C363.016 33.2662 358.978 40.4904 356.985 49.92C355.38 57.5162 356.855 67.5191 361.053 75.8638C365.828 85.3572 373.504 91.8124 383.353 93.6295C393.465 95.4953 402.02 94.3369 411.576 90.906L412.455 90.5836C412.734 90.4766 413.232 90.2819 413.858 90.0385H413.859C416.159 89.1418 420.18 87.5756 421.334 87.223C424.423 86.2788 426.531 86.3577 428.058 88.0029C428.65 88.64 428.619 89.6405 427.988 90.2386C427.396 90.8 426.488 90.8064 425.889 90.2797L425.773 90.1683C425.323 89.6826 424.391 89.6264 422.516 90.1694L422.24 90.2516C421.223 90.562 417.5 92.0125 415.178 92.9167H415.177C414.279 93.2671 413.59 93.5354 413.35 93.623C403.03 97.4282 393.77 98.7672 382.791 96.7424C371.911 94.7349 363.453 87.6221 358.259 77.297C353.745 68.3227 352.161 57.5854 353.921 49.2591C356.049 39.1957 360.411 31.3907 366.36 25.8268C371.017 21.4722 376.448 18.7476 381.098 17.9298ZM391.693 25.5726C392.541 25.405 393.365 25.9631 393.531 26.8208C393.697 27.6785 393.144 28.5103 392.295 28.678C379.599 31.1895 369.388 40.9825 366.427 53.9371C365.424 58.322 365.727 61.8871 366.712 63.2467L366.841 63.4176L366.852 63.4414L366.87 63.4273C367.222 63.1061 367.634 62.2862 367.954 61.0142L368.02 60.7351C371.066 47.4117 381.124 37.0984 393.97 33.635C394.806 33.4101 395.665 33.9108 395.888 34.7556C396.111 35.5993 395.614 36.4667 394.779 36.6917C383.205 39.8122 374.111 49.0157 371.193 60.9417L371.073 61.4468C369.998 66.1465 366.915 68.3898 364.416 65.4153C362.588 63.2391 362.141 58.6227 363.374 53.2254C366.616 39.0442 377.794 28.321 391.693 25.5726ZM410.532 42.9381C410.471 42.0663 409.722 41.4097 408.859 41.4725C393.612 42.5703 380.241 52.5721 374.922 67.333C372.903 72.9348 372.783 77.9156 374.435 80.4553C376.652 83.8635 380.139 81.9306 381.879 77.1055L382.061 76.6101C386.766 64.1184 397.79 55.393 410.695 53.5737C411.552 53.4536 412.15 52.6543 412.03 51.7879C411.911 50.9226 411.119 50.3191 410.263 50.4402C396.05 52.4434 383.932 62.1553 378.935 76.0239L378.824 76.3203C378.268 77.7631 377.66 78.6339 377.199 78.8891L377.178 78.9032C377.175 78.9053 377.172 78.9075 377.17 78.9097C377.166 78.9129 377.163 78.9151 377.163 78.9151C377.16 78.9151 377.159 78.9097 377.154 78.8999C377.144 78.8761 377.122 78.8231 377.054 78.7182L376.971 78.5808C376.062 76.953 376.2 73.0364 377.866 68.4157C382.759 54.837 395.057 45.6389 409.081 44.6287C409.945 44.5659 410.595 43.8088 410.532 42.9381ZM417.356 58.3177C418.219 58.255 418.967 58.9115 419.03 59.7833C419.091 60.6551 418.442 61.4111 417.578 61.4739C407.746 62.1823 399.123 68.6321 395.692 78.1514C394.676 80.9734 394.486 83.3865 394.85 84.6077L394.894 84.7439L394.964 84.6433C395.139 84.3751 395.335 83.99 395.529 83.4914L395.612 83.2708C399.236 73.2149 408.021 66.1735 418.327 64.7209C419.184 64.5998 419.975 65.2033 420.095 66.0686C420.214 66.9339 419.616 67.7332 418.76 67.8544C409.745 69.1253 402.04 75.2019 398.721 83.9079L398.556 84.3524C397.212 88.0818 394.305 89.6924 392.448 86.8369C391.175 84.8802 391.265 81.1876 392.748 77.0687C396.606 66.3661 406.301 59.1138 417.356 58.3177ZM425.612 71.0646C425.55 70.1928 424.801 69.5374 423.938 69.599C416.534 70.1323 410.041 74.9888 407.458 82.1578C406.439 84.983 406.377 87.5551 407.32 89.0034C408.864 91.3775 411.264 90.0471 412.264 87.2728L412.4 86.9083C414.505 81.4807 419.327 77.6961 424.966 76.9011C425.823 76.7799 426.42 75.9806 426.3 75.1153C426.182 74.25 425.389 73.6465 424.532 73.7676L424.136 73.8271C418.066 74.8146 412.829 78.7063 410.114 84.3059L410.018 84.5049L410.077 84.2778C410.165 83.9479 410.272 83.5996 410.402 83.2394C412.559 77.2548 417.979 73.2008 424.161 72.7552C425.024 72.6936 425.673 71.9364 425.612 71.0646Z" fill="#00160A"/>
<path fill-rule="evenodd" clip-rule="evenodd" d="M417.356 58.319C418.22 58.2562 418.968 58.9128 419.03 59.7846C419.091 60.6564 418.442 61.4124 417.579 61.4751C407.747 62.1836 399.124 68.6333 395.693 78.1527C394.677 80.9747 394.487 83.3878 394.851 84.6089L394.895 84.7452L394.965 84.6446C395.14 84.3764 395.336 83.9913 395.53 83.4927L395.613 83.272C399.236 73.2162 408.022 66.1748 418.328 64.7222C419.185 64.601 419.976 65.2046 420.096 66.0699C420.215 66.9352 419.617 67.7345 418.761 67.8556C409.746 69.1266 402.041 75.2031 398.722 83.9091L398.557 84.3537C397.213 88.0831 394.306 89.6936 392.449 86.8382C391.176 84.8815 391.264 81.1888 392.749 77.07C396.606 66.3673 406.302 59.115 417.356 58.319Z" fill="#00160A"/>
<path d="M319.796 264.3C352.638 248.786 380.096 240.591 397.191 239.086C402.426 238.625 404.8 241.54 403.475 246.282C402.49 249.802 399.493 254.634 394.897 260.355C386.887 270.328 376.325 278.863 365.807 286.801C382.635 271.115 386.926 264.554 392.116 258.093L392.931 257.065C396.779 252.151 399.266 248.046 400.031 245.307L400.141 244.891C400.617 242.914 400.065 242.446 397.503 242.672C380.795 244.142 353.441 252.353 320.721 267.847C287.947 283.365 287.009 279.789 319.796 264.3Z" fill="white"/>
<path d="M169.597 214.11L169.837 214.688C171.501 218.672 173.23 222.617 175.192 226.921L175.955 228.59C175.705 228.76 175.376 228.941 175.014 229.1C174.494 229.329 173.968 229.489 173.571 229.543L173.445 229.556L173.254 229.326C171.771 227.481 170.05 224.348 168.807 221.233C168.144 219.574 167.672 218.052 167.459 216.883C167.373 216.407 167.333 216.007 167.336 215.703L167.346 215.503C167.349 215.454 167.349 215.429 167.337 215.425L167.383 215.393C167.649 215.208 168.325 214.808 169.33 214.257L169.597 214.11Z" fill="white"/>
<path fill-rule="evenodd" clip-rule="evenodd" d="M211.113 199.679C212.141 198.408 213.473 198.598 215.162 199.632L215.596 199.909L216.81 200.721C217.149 200.941 217.296 201.016 217.494 201.096C217.953 201.28 218.177 201.807 217.994 202.27C217.811 202.734 217.29 202.961 216.831 202.776L216.668 202.708C216.358 202.574 216.123 202.434 215.494 202.012L214.624 201.426C214.48 201.332 214.356 201.253 214.234 201.177C213.224 200.56 212.766 200.494 212.499 200.823C212.332 201.03 212.372 201.472 212.706 202.378L213.071 203.328C213.797 205.275 213.801 206.144 212.507 206.887C211.395 207.527 210.824 207.228 209.225 205.646L208.837 205.257C207.812 204.224 207.276 203.865 206.93 203.939C206.815 203.964 206.681 204.046 206.518 204.222C206.326 204.429 206.271 205.09 206.389 206.261L206.57 207.792C206.78 209.662 206.695 210.146 205.931 210.663C204.878 211.375 203.477 210.57 200.88 208.216C200.513 207.881 200.481 207.31 200.812 206.938C201.142 206.567 201.709 206.537 202.076 206.87C203.187 207.877 204.024 208.532 204.61 208.869L204.741 208.941L204.851 208.996L204.853 208.883L204.847 208.613C204.835 208.39 204.807 208.121 204.753 207.666L204.639 206.727C204.421 204.823 204.489 203.764 205.212 202.985C205.614 202.553 206.064 202.276 206.559 202.17C207.709 201.925 208.527 202.421 209.884 203.76L210.568 204.441C211.306 205.158 211.58 205.341 211.623 205.316C211.791 205.219 211.765 204.92 211.312 203.744L211.113 203.235C210.481 201.593 210.36 200.61 211.113 199.679Z" fill="#00160A"/>
<path fill-rule="evenodd" clip-rule="evenodd" d="M308.838 52.5309L307.988 52.6077C307.219 52.6823 306.655 53.3735 306.73 54.1501C306.775 54.6195 307.042 55.0122 307.417 55.2339L307.269 55.3399C306.638 55.7899 306.488 56.6714 306.935 57.3084C307.38 57.9455 308.253 58.097 308.884 57.647L310.321 56.6184C310.28 56.9515 310.243 57.2944 310.213 57.6503L310.073 59.4252C310.009 60.2029 310.58 60.8854 311.351 60.9492C312.121 61.0141 312.796 60.4365 312.861 59.6588L313.033 57.5345C313.078 57.0802 313.134 56.6541 313.201 56.2506C313.693 57.1916 313.79 57.9174 313.686 58.6021L313.646 58.8357L313.628 58.9796C313.576 59.6934 314.068 60.3446 314.781 60.4722C315.541 60.6074 316.266 60.0947 316.4 59.3268L316.448 59.0531C316.597 58.0991 316.529 57.1397 316.146 56.0743C316.347 56.2193 316.519 56.3815 316.672 56.5578L316.823 56.7384L316.921 56.8444C317.428 57.3441 318.239 57.3831 318.794 56.9126C319.385 56.4118 319.462 55.5205 318.966 54.9224L318.788 54.7104C318.726 54.6368 318.662 54.5665 318.596 54.4962C319.326 54.5395 319.974 54.0019 320.064 53.2589C320.158 52.4844 319.613 51.7792 318.846 51.684C317.528 51.5207 316.374 51.4839 315.314 51.5802C315.694 51.1281 316.136 50.6684 316.649 50.1849C317.214 49.6527 317.245 48.7593 316.718 48.1882C316.191 47.6182 315.307 47.5868 314.741 48.1179C313.793 49.0102 313.038 49.8593 312.438 50.7192C312.205 50.4704 311.961 50.2152 311.705 49.9534L311.1 49.3445C310.548 48.7982 309.663 48.8058 309.122 49.3628C308.581 49.9199 308.588 50.8144 309.14 51.3606C309.523 51.7403 309.876 52.0993 310.201 52.439C309.768 52.4617 309.314 52.492 308.838 52.5309Z" fill="#00160A"/>
<path fill-rule="evenodd" clip-rule="evenodd" d="M254.934 62.3175C254.599 61.9692 254.055 61.9789 253.719 62.3391C253.385 62.6982 253.385 63.2715 253.722 63.6198C254.04 63.9486 254.325 64.2547 254.578 64.5392C254.041 64.7695 253.501 65.0681 252.923 65.4358L252.046 66.0037C251.66 66.2513 251.576 66.7478 251.858 67.1112C252.14 67.4747 252.68 67.5688 253.065 67.3211L254.116 66.6429C254.665 66.3033 255.161 66.0469 255.658 65.8663C256.414 66.9274 256.573 67.6088 256.476 68.2394L256.45 68.3897L256.439 68.4817C256.403 68.9392 256.701 69.3545 257.139 69.4324C257.605 69.5157 258.053 69.1836 258.139 68.6904L258.169 68.5141C258.313 67.5991 258.16 66.6764 257.51 65.5375C257.951 65.531 258.431 65.5634 258.975 65.6337C259.449 65.6954 259.875 65.3915 259.926 64.9556C259.976 64.5208 259.633 64.1173 259.159 64.0557C258.119 63.9215 257.247 63.9064 256.449 64.0156C256.122 63.6079 255.74 63.1731 255.302 62.7036L254.934 62.3175Z" fill="#E7EAEE"/>
<path fill-rule="evenodd" clip-rule="evenodd" d="M74.6876 297.812L75.6515 299.975L77.8491 300.612C77.968 300.647 78.0366 300.771 78.0023 300.891C77.9916 300.928 77.9723 300.963 77.9455 300.99L76.2759 302.667L76.3691 305.083C76.3744 305.208 76.278 305.313 76.1549 305.317C76.1131 305.319 76.0713 305.31 76.0349 305.288L74.1446 304.201C74.0857 304.168 74.0151 304.162 73.9519 304.188L71.931 304.998C71.8153 305.045 71.6857 304.987 71.6397 304.872C71.6247 304.833 71.6204 304.789 71.6279 304.748L72.0531 302.37L70.6308 300.473C70.5569 300.373 70.5762 300.231 70.6747 300.156C70.7047 300.133 70.7411 300.118 70.7786 300.113L73.0415 299.791L74.2946 297.784C74.3599 297.679 74.4991 297.648 74.603 297.713C74.6405 297.737 74.6694 297.772 74.6876 297.812Z" fill="#00160A"/>
<path fill-rule="evenodd" clip-rule="evenodd" d="M87.5402 177.752L88.5041 179.915L90.7017 180.552C90.8206 180.587 90.8891 180.711 90.8548 180.831C90.8441 180.868 90.8248 180.902 90.7981 180.93L89.1284 182.607L89.2216 185.022C89.227 185.148 89.1306 185.253 89.0074 185.257C88.9656 185.259 88.9239 185.25 88.8874 185.228L86.9972 184.141C86.9383 184.107 86.8676 184.102 86.8044 184.128L84.7835 184.938C84.6678 184.985 84.5382 184.927 84.4922 184.811C84.4772 184.773 84.4729 184.729 84.4804 184.688L84.9056 182.31L83.4833 180.413C83.4094 180.313 83.4287 180.171 83.5273 180.096C83.5572 180.073 83.5937 180.058 83.6311 180.052L85.8941 179.731L87.1471 177.724C87.2125 177.619 87.3517 177.587 87.4556 177.653C87.4931 177.677 87.522 177.712 87.5402 177.752Z" fill="#00160A"/>
<path d="M116.651 368.898C117.369 368.372 118.374 368.533 118.894 369.257C119.416 369.983 96.689 388.678 87.8717 397.247L86.8478 398.25C81.811 403.227 78.099 407.536 76.0053 410.942C73.7884 414.553 73.646 416.512 75.0778 417.314C80.5098 420.354 88.3204 421.836 99.5056 419.964L100.655 419.766C104.913 419.013 136.941 411.959 136.435 412.146L136.238 412.205C135.228 412.476 122.187 417.031 117.685 418.188L117.141 418.326C110.26 420.075 104.874 421.274 100.03 422.084C88.194 424.064 79.7366 423.632 73.5196 420.152C69.9329 418.145 70.2188 414.208 73.2754 409.232C75.6797 405.318 79.909 400.482 85.644 394.908C94.5791 386.226 107.146 375.869 116.651 368.898Z" fill="white"/>
<path fill-rule="evenodd" clip-rule="evenodd" d="M283.996 143.998C284.388 143.735 284.913 143.847 285.17 144.249L290.97 153.324C291.227 153.727 291.118 154.266 290.726 154.529C290.334 154.793 289.808 154.681 289.551 154.278L283.751 145.203C283.494 144.801 283.604 144.261 283.996 143.998Z" fill="#00160A"/>
<path fill-rule="evenodd" clip-rule="evenodd" d="M284.279 137.292C284.728 137.025 285.321 137.159 285.605 137.592L289.595 143.697C289.878 144.131 289.743 144.697 289.294 144.964C288.846 145.232 288.252 145.097 287.969 144.665L283.978 138.56C283.695 138.127 283.829 137.56 284.279 137.292Z" fill="#00160A"/>
</svg>
