<svg width="849" height="460" viewBox="0 0 849 460" fill="none" xmlns="http://www.w3.org/2000/svg">
<path fill-rule="evenodd" clip-rule="evenodd" d="M848.994 32.0425C848.514 56.5577 822.589 97.365 780.911 143.541C750.721 176.991 715.592 209.324 686.137 231.11L684.304 232.455L685.52 237.87C692.683 269.283 702.033 303.431 698.501 337.869C689.927 421.451 624.591 515.751 538.251 562.081C506.763 579.76 470.969 590.661 434.252 595.406L430.751 595.837C403.375 599.065 377.177 598.53 361.168 595.227C299.027 582.407 246.416 538.94 214.61 476.031C214.504 475.821 214.419 475.604 214.359 475.383C210.172 477.774 204.537 480.445 201.964 481.318L194.914 483.702C118.946 509.271 43.6315 530.662 12.8656 517.311C1.15196 512.229 -2.85216 502.453 2.04821 489.322C6.80644 476.559 20.0066 460.115 42.1498 439.65L43.3665 438.529C64.3509 419.281 110.95 384.11 183.164 333.014L183.181 332.076C186.706 180.674 304.233 65.2558 451.962 74.6796C497.147 77.5605 533.132 93.6283 551.105 103.496L559.009 99.2502C633.141 59.5857 692.623 31.705 738.005 15.0176C812.641 -12.4268 849.55 0.403444 848.994 32.0425ZM740.436 31.2807C656.981 61.9675 525.09 130.986 341.456 242.005L335.874 245.382C192.883 331.999 98.1982 397.801 48.1296 443.727L45.6625 446.007L43.3232 448.203C5.73916 483.736 -0.922387 503.642 15.67 510.84C44.0724 523.167 120.344 502.388 195.04 477.873L201.964 475.587C208.625 473.379 213.044 472.111 215.778 471.525C215.896 471.441 216.026 471.364 216.164 471.294C217.099 470.821 218.144 470.804 219.048 471.159C219.243 471.197 219.37 471.258 219.438 471.342C220.045 471.672 220.563 472.183 220.898 472.849C251.777 533.919 302.657 571.134 362.592 583.499C378.151 586.708 404.397 587.178 431.71 583.798L433.351 583.59C469.222 578.954 504.158 573.135 534.862 555.9C619.233 510.623 683.159 418.36 691.49 337.148C695.051 302.44 690.507 268.371 678.428 236.662C677.43 237.359 676.44 238.044 675.459 238.714C673.604 239.98 674.298 237.928 677.536 232.564C677.707 231.865 678.095 231.226 678.649 230.749L679.647 229.167C679.996 228.615 680.362 228.044 680.748 227.446L684.925 223.921C724.29 190.604 754.542 162.237 775.681 138.814L778.095 136.125C817.206 92.3288 841.52 53.6407 841.92 31.9123C842.361 8.07451 810.93 5.35757 740.436 31.2807ZM386.573 477.227C396.027 506.144 381.724 524.743 356.545 525.705C333.279 526.592 312.092 511.923 313.171 491.077C314.106 473.061 326.434 453.799 341.612 446.728C359.968 438.172 377.194 448.551 386.573 477.227ZM345.33 454.717C333.185 460.378 322.738 476.699 321.97 491.532C321.206 506.308 337.526 517.607 356.207 516.896C375.739 516.149 385.766 503.111 378.199 479.968C370.321 455.872 358.34 448.657 345.33 454.717ZM578.813 418.302C590.879 441.113 587.72 463.524 569.169 473.567L568.649 473.842L568.381 474.112C543.503 498.76 512.424 501.752 492.16 483.885L491.464 483.261C468.121 461.86 473.682 425.098 510.829 396.278C534.734 377.731 563.936 390.169 578.813 418.302ZM515.455 402.249C481.731 428.413 476.992 459.746 496.564 477.687C510.603 490.556 531.346 491.267 550.719 478.779L551.097 478.526L550.955 478.497C549.616 478.143 548.539 477.06 548.233 475.648L548.173 475.288C547.927 473.218 549.408 471.337 551.478 471.094C556.215 470.53 560.325 469.387 563.811 467.75L564.288 467.516L564.864 466.918C567.138 464.524 569.357 461.921 571.508 459.103L572.224 458.155C573.031 457.073 574.305 456.547 575.558 456.648L575.655 456.658L575.705 456.564C580.227 447.618 579.158 435.496 572.535 422.596L572.14 421.837C559.202 397.372 535.018 387.071 515.455 402.249ZM740.019 131.094C738.078 137.994 732.173 147.461 723.119 158.674C707.336 178.218 683.627 200.966 662.902 216.523L667.499 211.462C667.453 211.421 667.415 211.368 667.384 211.308L665.796 208.391C655.427 189.45 643.872 170.766 625.2 155.535C576.869 175.474 521.449 202.731 470.962 231.231L454.41 240.592C332.539 309.673 268.42 351.03 199.853 401.873C202.443 413.534 205.703 424.915 209.608 435.942C210.223 437.673 202.214 444.148 200.747 443.348C187.07 452.519 165.652 459.18 153.456 459.527C141.572 459.864 134.705 455.05 138.244 445.453C141.203 437.422 152.348 425.969 172.407 410.622L174.694 408.886L179.317 405.41C254.81 348.853 329.547 302.959 467.497 225.088L473.272 221.848C567.887 168.999 677.452 121.388 727.636 116.996C737.952 116.092 742.631 121.803 740.019 131.094ZM190.674 408.715L174.857 420.658C160.747 431.364 150.572 439.281 145.079 444.361L144.675 444.737C137.967 451.031 145.559 452.695 153.256 452.478C164.917 452.147 182.777 443.3 197.895 435.248C195.102 426.586 192.691 417.731 190.674 408.715ZM438.085 370.427C439.972 370.904 441.114 372.823 440.634 374.711C440.155 376.598 438.239 377.741 436.353 377.261C426.875 374.853 421.278 375.779 419.462 378.332C418.257 380.027 418.925 382.915 421.177 384.759C422.938 386.201 425.282 386.888 426.894 386.538C428.296 386.232 429.084 385.149 429.084 382.442C429.084 380.494 430.66 378.915 432.607 378.915C434.553 378.915 436.131 380.494 436.131 382.442C436.131 388.329 433.187 392.384 428.395 393.428C424.54 394.267 420.052 392.948 416.715 390.217C411.788 386.184 410.179 379.221 413.718 374.243C417.599 368.785 426.104 367.382 438.085 370.427ZM283.29 357.481C288.725 359.111 291.064 363.286 291.801 369.549L291.876 370.229L291.965 371.261C291.977 371.432 291.989 371.608 292.001 371.796L292.187 375.376L292.242 376.181C292.271 376.538 292.303 376.827 292.339 377.085L292.433 377.623L292.491 377.862L292.589 377.948C293.676 379.014 293.965 380.685 293.262 382.064L293.081 382.377C292.026 384.014 289.845 384.484 288.209 383.428C285.959 381.977 285.448 380.482 285.176 376.191L284.952 371.994C284.926 371.615 284.897 371.287 284.861 370.916C284.461 366.808 283.461 364.894 281.266 364.236C275.11 362.392 271.578 364.274 270.461 368.392C269.463 372.061 270.904 375.916 273.431 376.987L274.07 377.225C275.72 377.932 276.594 379.79 276.038 381.538C275.448 383.392 273.465 384.417 271.61 383.826C264.9 381.685 261.713 373.708 263.659 366.541C265.832 358.544 273.39 354.513 283.29 357.481ZM537.531 303.487C547.291 317.214 545.477 334.682 529.819 342.585C528.082 343.462 525.962 342.766 525.085 341.025C524.208 339.287 524.907 337.165 526.644 336.29C537.979 330.567 539.273 318.106 531.787 307.573C524.516 297.342 514.393 296.218 507.435 307.272C500.06 318.993 500.597 325.871 505.907 328.969C510.121 331.43 516.91 330.912 518.775 328.901L518.956 328.682C520.086 327.095 522.285 326.724 523.871 327.852C525.456 328.983 525.827 331.184 524.697 332.77C520.78 338.277 509.601 339.289 502.356 335.063C493.081 329.651 492.194 318.258 501.472 303.513C511.405 287.727 527.61 289.528 537.531 303.487ZM391.426 283.265C393.259 283.265 394.762 284.666 394.933 286.452L394.95 286.792C394.95 287.414 395.526 288.106 397.596 289.625L399.552 291.03C401.684 292.585 402.713 293.552 403.686 295.09C405.907 298.605 407.168 302.185 407.168 306.392C407.168 317.17 390.987 331.828 373.327 338.351C352.155 346.17 334.811 340.372 330.091 318.634C329.677 316.729 330.884 314.851 332.787 314.439C334.688 314.024 336.565 315.232 336.979 317.137C340.641 334.005 353.288 338.233 370.887 331.734C386.082 326.121 400.118 313.407 400.118 306.392C400.118 303.68 399.294 301.336 397.728 298.858L397.516 298.561C397.157 298.108 396.596 297.616 395.586 296.867L393.261 295.191C389.399 292.342 387.903 290.418 387.903 286.792C387.903 284.844 389.479 283.265 391.426 283.265ZM407.967 87.8183L405.744 88.069C285.492 102.541 195.283 198.782 190.363 327.93L203.265 318.846C240.299 292.833 283.285 263.121 332.224 229.705L341.759 223.938C370.229 206.752 397.451 190.578 423.435 175.404C422.96 174.573 422.828 173.55 423.15 172.569C424.967 167.02 426.646 163.29 429.723 159.556C439.35 147.868 452.541 142.16 461.886 149.498C462.806 150.219 463.271 151.309 463.233 152.396L471.535 147.656C497.678 132.765 522.415 119.011 545.761 106.376L536.642 103.782C523.119 99.9735 506.295 95.4557 489.537 91.9793C489.691 103.136 481.343 112.047 467.475 118.177C455.685 123.387 440.323 126.191 429.4 125.537C408.965 124.32 397.463 106.384 407.967 87.8183ZM618.91 240.956C627.533 264.531 620.418 285.97 598.884 285.83C568.205 285.63 538.247 258.825 543.091 234.811C545.25 224.1 553.299 214.623 567.295 209.893C589.645 202.34 610.131 216.957 618.91 240.956ZM569.55 216.576C557.983 220.484 551.671 227.916 549.999 236.207C546.154 255.266 572.238 278.603 598.93 278.779C614.222 278.877 619.478 263.034 612.289 243.379C604.683 222.583 587.677 210.45 569.55 216.576ZM310.425 133.098L310.675 133.462L312.371 136.159C313.203 137.531 313.947 138.874 314.655 140.325C322.459 156.292 322.257 177.224 309.049 206.282C303.067 219.444 287.824 237.135 274.51 247.692C257.516 261.173 244.824 264.234 229.677 262.569L225.181 262.041L224.635 261.99C224.333 261.968 224.141 261.968 223.931 261.973L223.623 261.988C223.389 261.997 223.307 261.985 223.293 261.956V261.932L223.179 262.115C222.158 263.581 220.173 264.063 218.578 263.176C216.877 262.229 216.265 260.083 217.212 258.381C218.477 256.1 220.594 255.071 223.288 254.943C224.003 254.909 224.757 254.934 225.656 255.008L226.707 255.11L229.614 255.464C243.412 257.137 254.389 254.652 270.133 242.166C282.637 232.248 297.169 215.385 302.633 203.362C314.995 176.171 315.176 157.439 308.324 143.423C307.866 142.49 307.392 141.603 306.876 140.711L306.139 139.479L304.66 137.14C303.626 135.489 304.125 133.315 305.773 132.28C307.319 131.309 309.326 131.687 310.425 133.098ZM728.25 124.021C705.722 125.993 670.407 137.128 629.694 153.693L630.884 154.746C642.214 164.917 665.076 189.04 672.231 206.245L679.357 198.336C696.945 178.763 709.704 164.064 717.635 154.24L719.242 152.227C726.824 142.598 731.725 134.554 733.235 129.185L733.45 128.37C734.389 124.496 733.3 123.577 728.25 124.021ZM390.823 135.475C399.593 139.718 403.154 149.163 397.384 157.728C396.295 159.344 394.105 159.77 392.49 158.681C390.876 157.594 390.45 155.402 391.539 153.787C394.712 149.076 392.922 144.325 387.754 141.825C382.314 139.192 376.351 140.706 373.274 146.453C370.439 151.747 370.244 158.917 372.508 163.613C374.496 167.736 377.387 168.526 381.801 165.202C383.357 164.03 385.566 164.341 386.735 165.899C387.906 167.454 387.595 169.664 386.041 170.836C377.997 176.894 370.036 174.72 366.16 166.677C362.91 159.937 363.17 150.392 367.061 143.122C372.026 133.85 382.148 131.28 390.823 135.475ZM435.16 164.042C433.517 166.036 432.344 168.141 431.255 170.841C440.335 165.564 449.262 160.404 458.036 155.371L457.781 155.221L457.535 155.045C452.155 150.819 442.67 154.925 435.16 164.042ZM420.132 86.7407L417.05 86.9577L416.843 87.218C404.662 102.623 409.353 115.125 425.991 116.902C437.938 118.177 469.656 109.306 473.378 106.193C477.001 103.161 481.584 96.1886 482.29 90.5377C471.525 88.5126 460.995 87.0252 451.601 86.543C442.003 86.0536 432.537 86.0633 423.23 86.5575L420.132 86.7407Z" fill="#27272A"/>
</svg>
